{
    "asset": {
        "generator": "COLLADA2GLTF",
        "version": "2.0"
    },
    "scene": 0,
    "scenes": [
        {
            "nodes": [
                0
            ]
        }
    ],
    "nodes": [
        {
            "children": [
                3,
                1
            ],
            "matrix": [
                1.0,
                0.0,
                0.0,
                0.0,
                0.0,
                0.0,
                -1.0,
                0.0,
                0.0,
                1.0,
                0.0,
                0.0,
                0.0,
                0.0,
                0.0,
                1.0
            ]
        },
        {
            "children": [
                2
            ],
            "matrix": [
                -1.0844260454177857,
                -0.7593238353729248,
                7.44674935049261e-7,
                0.0,
                4.060298977037746e-7,
                5.129736564413179e-7,
                1.1143419742584229,
                0.0,
                -0.6391606330871582,
                0.912815272808075,
                -1.873140149655228e-7,
                0.0,
                -87.66466522216797,
                17.394908905029298,
                -1.8039209842681885,
                1.0
            ]
        },
        {
            "mesh": 0,
            "matrix": [
                1.0,
                0.0,
                0.0,
                0.0,
                0.0,
                1.0,
                0.0,
                0.0,
                0.0,
                0.0,
                1.0,
                0.0,
                0.006097375880926848,
                0.003298640949651599,
                -0.007277087774127722,
                1.0
            ]
        },
        {
            "children": [
                4
            ],
            "matrix": [
                21.244569778442384,
                0.0,
                0.0,
                0.0,
                0.0,
                21.211589813232427,
                0.0,
                0.0,
                0.0,
                0.0,
                21.211589813232427,
                0.0,
                -87.48745727539063,
                17.2502498626709,
                -1.841081976890564,
                1.0
            ]
        },
        {
            "mesh": 1,
            "matrix": [
                1.0,
                0.0,
                0.0,
                0.0,
                0.0,
                1.0,
                0.0,
                0.0,
                0.0,
                0.0,
                1.0,
                0.0,
                -0.0029784119687974459,
                0.0017096579540520909,
                -0.0386086106300354,
                1.0
            ]
        }
    ],
    "meshes": [
        {
            "primitives": [
                {
                    "attributes": {
                        "NORMAL": 1,
                        "POSITION": 2,
                        "TEXCOORD_0": 3
                    },
                    "indices": 0,
                    "mode": 4,
                    "material": 0
                },
                {
                    "attributes": {
                        "NORMAL": 5,
                        "POSITION": 6
                    },
                    "indices": 4,
                    "mode": 4,
                    "material": 1
                }
            ],
            "name": "__1"
        },
        {
            "primitives": [
                {
                    "attributes": {
                        "NORMAL": 8,
                        "POSITION": 9,
                        "TEXCOORD_0": 10
                    },
                    "indices": 7,
                    "mode": 4,
                    "material": 2
                },
                {
                    "attributes": {
                        "NORMAL": 12,
                        "POSITION": 13,
                        "TEXCOORD_0": 14
                    },
                    "indices": 11,
                    "mode": 4,
                    "material": 3
                },
                {
                    "attributes": {
                        "NORMAL": 16,
                        "POSITION": 17,
                        "TEXCOORD_0": 18
                    },
                    "indices": 15,
                    "mode": 4,
                    "material": 4
                }
            ],
            "name": "_"
        }
    ],
    "accessors": [
        {
            "bufferView": 0,
            "byteOffset": 0,
            "componentType": 5123,
            "count": 2388,
            "max": [
                1540
            ],
            "min": [
                0
            ],
            "type": "SCALAR"
        },
        {
            "bufferView": 1,
            "byteOffset": 0,
            "componentType": 5126,
            "count": 1541,
            "max": [
                1.0,
                0.9999845027923584,
                0.9992343187332152
            ],
            "min": [
                -0.9876239895820618,
                -0.9999948143959044,
                -0.9998595118522644
            ],
            "type": "VEC3"
        },
        {
            "bufferView": 1,
            "byteOffset": 18492,
            "componentType": 5126,
            "count": 1541,
            "max": [
                0.12411130219697952,
                0.0944695919752121,
                0.049634870141744617
            ],
            "min": [
                -0.136306494474411,
                -0.10106679797172548,
                -0.0350819006562233
            ],
            "type": "VEC3"
        },
        {
            "bufferView": 2,
            "byteOffset": 0,
            "componentType": 5126,
            "count": 1541,
            "max": [
                0.855831503868103,
                0.9435277581214904
            ],
            "min": [
                0.09862834215164185,
                0.08542370796203613
            ],
            "type": "VEC2"
        },
        {
            "bufferView": 0,
            "byteOffset": 4776,
            "componentType": 5123,
            "count": 15792,
            "max": [
                2633
            ],
            "min": [
                0
            ],
            "type": "SCALAR"
        },
        {
            "bufferView": 1,
            "byteOffset": 36984,
            "componentType": 5126,
            "count": 2634,
            "max": [
                0.9866501092910768,
                0.9985098838806152,
                0.9987767934799194
            ],
            "min": [
                -0.9969838857650756,
                -0.9906855821609496,
                -0.9939001202583312
            ],
            "type": "VEC3"
        },
        {
            "bufferView": 1,
            "byteOffset": 68592,
            "componentType": 5126,
            "count": 2634,
            "max": [
                0.12379299849271774,
                0.4866177141666413,
                0.009906768798828124
            ],
            "min": [
                -0.1543899029493332,
                -0.003681629896163941,
                -0.26594600081443789
            ],
            "type": "VEC3"
        },
        {
            "bufferView": 0,
            "byteOffset": 36360,
            "componentType": 5123,
            "count": 6186,
            "max": [
                1538
            ],
            "min": [
                0
            ],
            "type": "SCALAR"
        },
        {
            "bufferView": 1,
            "byteOffset": 100200,
            "componentType": 5126,
            "count": 1539,
            "max": [
                0.9997029900550842,
                0.996867537498474,
                0.9705457091331482
            ],
            "min": [
                -0.999789535999298,
                -0.9999960064888,
                -0.9988979697227478
            ],
            "type": "VEC3"
        },
        {
            "bufferView": 1,
            "byteOffset": 118668,
            "componentType": 5126,
            "count": 1539,
            "max": [
                0.008304734714329243,
                0.006938491016626358,
                0.07574991136789322
            ],
            "min": [
                -0.008307505398988724,
                -0.008424501866102219,
                0.002595389960333705
            ],
            "type": "VEC3"
        },
        {
            "bufferView": 2,
            "byteOffset": 12328,
            "componentType": 5126,
            "count": 1539,
            "max": [
                0.9997736215591432,
                0.9564579725265504
            ],
            "min": [
                0.00410433067008853,
                0.003914475440979004
            ],
            "type": "VEC2"
        },
        {
            "bufferView": 0,
            "byteOffset": 48732,
            "componentType": 5123,
            "count": 9564,
            "max": [
                2410
            ],
            "min": [
                0
            ],
            "type": "SCALAR"
        },
        {
            "bufferView": 1,
            "byteOffset": 137136,
            "componentType": 5126,
            "count": 2411,
            "max": [
                0.9987654089927672,
                0.9999254941940308,
                0.998712718486786
            ],
            "min": [
                -0.9996759295463562,
                -0.9999036192893982,
                -0.9987578392028808
            ],
            "type": "VEC3"
        },
        {
            "bufferView": 1,
            "byteOffset": 166068,
            "componentType": 5126,
            "count": 2411,
            "max": [
                0.014661270193755629,
                0.007283554878085852,
                0.07873156666755676
            ],
            "min": [
                -0.014502549543976784,
                -0.015155719593167304,
                -0.0015143619384616614
            ],
            "type": "VEC3"
        },
        {
            "bufferView": 2,
            "byteOffset": 24640,
            "componentType": 5126,
            "count": 2411,
            "max": [
                0.9911746382713318,
                0.9546462297439576
            ],
            "min": [
                0.00001406820047122892,
                0.0011069178581237794
            ],
            "type": "VEC2"
        },
        {
            "bufferView": 0,
            "byteOffset": 67860,
            "componentType": 5123,
            "count": 2010,
            "max": [
                568
            ],
            "min": [
                0
            ],
            "type": "SCALAR"
        },
        {
            "bufferView": 1,
            "byteOffset": 195000,
            "componentType": 5126,
            "count": 569,
            "max": [
                0.9756284356117249,
                0.994219958782196,
                0.986488938331604
            ],
            "min": [
                -0.9958211183547974,
                -0.993906021118164,
                -0.9987999796867372
            ],
            "type": "VEC3"
        },
        {
            "bufferView": 1,
            "byteOffset": 201828,
            "componentType": 5126,
            "count": 569,
            "max": [
                0.005594342015683651,
                -0.007809608709067106,
                0.05689040943980217
            ],
            "min": [
                0.0015181009657680989,
                -0.01388143002986908,
                0.05320483073592186
            ],
            "type": "VEC3"
        },
        {
            "bufferView": 2,
            "byteOffset": 43928,
            "componentType": 5126,
            "count": 569,
            "max": [
                0.8908672332763672,
                0.9019007682800292
            ],
            "min": [
                0.07651668787002564,
                0.09477907419204712
            ],
            "type": "VEC2"
        }
    ],
    "materials": [
        {
            "pbrMetallicRoughness": {
                "baseColorTexture": {
                    "index": 0
                },
                "metallicFactor": 0.0
            },
            "emissiveFactor": [
                0.0,
                0.0,
                0.0
            ],
            "occlusionTexture": {
                "index": 0
            },
            "name": "Material__1411790"
        },
        {
            "pbrMetallicRoughness": {
                "baseColorFactor": [
                    0.11764710396528244,
                    0.15294119715690614,
                    0.07058823853731156,
                    1.0
                ],
                "metallicFactor": 0.0
            },
            "emissiveFactor": [
                0.0,
                0.0,
                0.0
            ],
            "name": "Mat3d66-615179-11-687"
        },
        {
            "pbrMetallicRoughness": {
                "baseColorTexture": {
                    "index": 1
                },
                "metallicFactor": 0.0
            },
            "emissiveFactor": [
                0.0,
                0.0,
                0.0
            ],
            "occlusionTexture": {
                "index": 1
            },
            "name": "_3_-_Default"
        },
        {
            "pbrMetallicRoughness": {
                "baseColorTexture": {
                    "index": 2
                },
                "metallicFactor": 0.0
            },
            "emissiveFactor": [
                0.0,
                0.0,
                0.0
            ],
            "occlusionTexture": {
                "index": 2
            },
            "name": "Material__24"
        },
        {
            "pbrMetallicRoughness": {
                "baseColorTexture": {
                    "index": 3
                },
                "metallicFactor": 0.0
            },
            "emissiveFactor": [
                0.0,
                0.0,
                0.0
            ],
            "occlusionTexture": {
                "index": 3
            },
            "name": "Material__1411778"
        }
    ],
    "textures": [
        {
            "sampler": 0,
            "source": 0
        },
        {
            "sampler": 0,
            "source": 1
        },
        {
            "sampler": 0,
            "source": 2
        },
        {
            "sampler": 0,
            "source": 3
        }
    ],
    "images": [
        {
            "uri": "3_wxgr_tt_06.jpg"
        },
        {
            "uri": "0_3d66Model-615179-files-1.jpg"
        },
        {
            "uri": "1_wxgr_tt_05.ifl"
        },
        {
            "uri": "2_shouji_tt_03.JPG"
        }
    ],
    "samplers": [
        {
            "magFilter": 9729,
            "minFilter": 9986,
            "wrapS": 10497,
            "wrapT": 10497
        }
    ],
    "bufferViews": [
        {
            "buffer": 0,
            "byteOffset": 257136,
            "byteLength": 71880,
            "target": 34963
        },
        {
            "buffer": 0,
            "byteOffset": 0,
            "byteLength": 208656,
            "byteStride": 12,
            "target": 34962
        },
        {
            "buffer": 0,
            "byteOffset": 208656,
            "byteLength": 48480,
            "byteStride": 8,
            "target": 34962
        }
    ],
    "buffers": [
        {
            "byteLength": 329016,
            "uri": "data:application/octet-stream;base64,"
        }
    ]
}
