{
  "accessors": [
    {
      "name": "2_1_0_positions",
      "componentType": 5126,
      "count": 1560,
      "min": [
        -86.28949737548828,
        -2.6050000190734863,
        -17.46139907836914
      ],
      "max": [
        -85.93659973144531,
        -1.0354000329971313,
        -17.16349983215332
      ],
      "type": "VEC3",
      "bufferView": 0,
      "byteOffset": 0
    },
    {
      "name": "2_1_0_normals",
      "componentType": 5126,
      "count": 1560,
      "min": [
        -0.9996362924575806,
        -0.9988995790481567,
        -0.9987671375274658
      ],
      "max": [
        0.9997469782829285,
        0.9640858173370361,
        0.9999960660934448
      ],
      "type": "VEC3",
      "bufferView": 1,
      "byteOffset": 0
    },
    {
      "name": "2_1_0_texcoords",
      "componentType": 5126,
      "count": 1560,
      "min": [
        0.004100000020116568,
        0.0038999998942017555
      ],
      "max": [
        0.9998000264167786,
        0.9564999938011169
      ],
      "type": "VEC2",
      "bufferView": 2,
      "byteOffset": 0
    },
    {
      "name": "2_1_0_indices",
      "componentType": 5123,
      "count": 6186,
      "min": [
        0
      ],
      "max": [
        1559
      ],
      "type": "SCALAR",
      "bufferView": 3,
      "byteOffset": 0
    },
    {
      "name": "2_1_1_positions",
      "componentType": 5126,
      "count": 2521,
      "min": [
        -86.42530059814453,
        -2.692199945449829,
        -17.468700408935547
      ],
      "max": [
        -85.80159759521484,
        -0.964900016784668,
        -17.070600509643555
      ],
      "type": "VEC3",
      "bufferView": 0,
      "byteOffset": 18720
    },
    {
      "name": "2_1_1_normals",
      "componentType": 5126,
      "count": 2521,
      "min": [
        -0.9996756911277771,
        -0.9996681809425354,
        -0.9999255537986755
      ],
      "max": [
        0.9986920952796936,
        0.9970701336860657,
        0.9999033808708191
      ],
      "type": "VEC3",
      "bufferView": 1,
      "byteOffset": 18720
    },
    {
      "name": "2_1_1_texcoords",
      "componentType": 5126,
      "count": 2521,
      "min": [
        0,
        0.0010999999940395355
      ],
      "max": [
        0.9911999702453613,
        0.9545999765396118
      ],
      "type": "VEC2",
      "bufferView": 2,
      "byteOffset": 12480
    },
    {
      "name": "2_1_1_indices",
      "componentType": 5123,
      "count": 8352,
      "min": [
        0
      ],
      "max": [
        2520
      ],
      "type": "SCALAR",
      "bufferView": 3,
      "byteOffset": 12372
    },
    {
      "name": "2_1_2_positions",
      "componentType": 5126,
      "count": 452,
      "min": [
        -86.21150207519531,
        -1.3042999505996704,
        -17.375099182128906
      ],
      "max": [
        -86.01380157470703,
        -1.0717999935150146,
        -17.20039939880371
      ],
      "type": "VEC3",
      "bufferView": 0,
      "byteOffset": 48972
    },
    {
      "name": "2_1_2_normals",
      "componentType": 5126,
      "count": 452,
      "min": [
        -0.9998832941055298,
        -0.990248441696167,
        -0.9992302060127258
      ],
      "max": [
        0.9998832941055298,
        0.9966335892677307,
        0.9985868334770203
      ],
      "type": "VEC3",
      "bufferView": 1,
      "byteOffset": 48972
    },
    {
      "name": "2_1_2_texcoords",
      "componentType": 5126,
      "count": 452,
      "min": [
        0.004100000020116568,
        0.26989999413490295
      ],
      "max": [
        0.1395999938249588,
        0.3400000035762787
      ],
      "type": "VEC2",
      "bufferView": 2,
      "byteOffset": 32648
    },
    {
      "name": "2_1_2_indices",
      "componentType": 5123,
      "count": 1032,
      "min": [
        0
      ],
      "max": [
        451
      ],
      "type": "SCALAR",
      "bufferView": 3,
      "byteOffset": 29076
    },
    {
      "name": "2_1_3_positions",
      "componentType": 5126,
      "count": 96,
      "min": [
        -86.23760223388672,
        -1.2618000507354736,
        -17.287099838256836
      ],
      "max": [
        -86.17019653320312,
        -1.1384999752044678,
        -17.156700134277344
      ],
      "type": "VEC3",
      "bufferView": 0,
      "byteOffset": 54396
    },
    {
      "name": "2_1_3_normals",
      "componentType": 5126,
      "count": 96,
      "min": [
        -0.9350020885467529,
        -0.9946765899658203,
        -0.9990650415420532
      ],
      "max": [
        0.9036648273468018,
        0.9945159554481506,
        0.9179081320762634
      ],
      "type": "VEC3",
      "bufferView": 1,
      "byteOffset": 54396
    },
    {
      "name": "2_1_3_texcoords",
      "componentType": 5126,
      "count": 96,
      "min": [
        0.02239999920129776,
        0.8082000017166138
      ],
      "max": [
        0.15549999475479126,
        0.888700008392334
      ],
      "type": "VEC2",
      "bufferView": 2,
      "byteOffset": 36264
    },
    {
      "name": "2_1_3_indices",
      "componentType": 5123,
      "count": 327,
      "min": [
        0
      ],
      "max": [
        95
      ],
      "type": "SCALAR",
      "bufferView": 3,
      "byteOffset": 31140
    },
    {
      "name": "2_2_1_0_positions",
      "componentType": 5126,
      "count": 1255,
      "min": [
        -86.36730194091797,
        -1.9128999710083008,
        -17.51729965209961
      ],
      "max": [
        -86.08380126953125,
        -1.6950000524520874,
        -17.303300857543945
      ],
      "type": "VEC3",
      "bufferView": 0,
      "byteOffset": 55548
    },
    {
      "name": "2_2_1_0_normals",
      "componentType": 5126,
      "count": 1255,
      "min": [
        -0.9706530570983887,
        -0.9999945759773254,
        -0.9999995827674866
      ],
      "max": [
        0.9997904300689697,
        0.9999845027923584,
        0.9999996423721313
      ],
      "type": "VEC3",
      "bufferView": 1,
      "byteOffset": 55548
    },
    {
      "name": "2_2_1_0_texcoords",
      "componentType": 5126,
      "count": 1255,
      "min": [
        0.09860000014305115,
        0.08540000021457672
      ],
      "max": [
        0.8557999730110168,
        0.9434999823570251
      ],
      "type": "VEC2",
      "bufferView": 2,
      "byteOffset": 37032
    },
    {
      "name": "2_2_1_0_indices",
      "componentType": 5123,
      "count": 2382,
      "min": [
        0
      ],
      "max": [
        1254
      ],
      "type": "SCALAR",
      "bufferView": 3,
      "byteOffset": 31796
    },
    {
      "name": "2_2_1_1_positions",
      "componentType": 5126,
      "count": 2634,
      "min": [
        -86.35199737548828,
        -1.8042999505996704,
        -17.496999740600586
      ],
      "max": [
        -85.97740173339844,
        -1.2580000162124634,
        -17.158899307250977
      ],
      "type": "VEC3",
      "bufferView": 0,
      "byteOffset": 70608
    },
    {
      "name": "2_2_1_1_normals",
      "componentType": 5126,
      "count": 2634,
      "min": [
        -0.9990344047546387,
        -0.9906788468360901,
        -0.9982991814613342
      ],
      "max": [
        0.9992411732673645,
        0.9985117316246033,
        0.9979580044746399
      ],
      "type": "VEC3",
      "bufferView": 1,
      "byteOffset": 70608
    },
    {
      "name": "2_2_1_1_texcoords",
      "componentType": 5126,
      "count": 2634,
      "min": [
        -0.21879999339580536,
        0.7764000296592712
      ],
      "max": [
        0.155799999833107,
        1.322700023651123
      ],
      "type": "VEC2",
      "bufferView": 2,
      "byteOffset": 47072
    },
    {
      "name": "2_2_1_1_indices",
      "componentType": 5123,
      "count": 15792,
      "min": [
        0
      ],
      "max": [
        2633
      ],
      "type": "SCALAR",
      "bufferView": 3,
      "byteOffset": 36560
    }
  ],
  "asset": {
    "generator": "obj2gltf",
    "version": "2.0"
  },
  "buffers": [
    {
      "name": "dadianhua",
      "byteLength": 340720,
      "uri": "data:application/octet-stream;base64,"
    }
  ],
  "bufferViews": [
    {
      "name": "bufferView_0",
      "buffer": 0,
      "byteLength": 102216,
      "byteOffset": 0,
      "byteStride": 12,
      "target": 34962
    },
    {
      "name": "bufferView_1",
      "buffer": 0,
      "byteLength": 102216,
      "byteOffset": 102216,
      "byteStride": 12,
      "target": 34962
    },
    {
      "name": "bufferView_2",
      "buffer": 0,
      "byteLength": 68144,
      "byteOffset": 204432,
      "byteStride": 8,
      "target": 34962
    },
    {
      "name": "bufferView_3",
      "buffer": 0,
      "byteLength": 68144,
      "byteOffset": 272576,
      "target": 34963
    }
  ],
  "materials": [
    {
      "name": "03___Default",
      "pbrMetallicRoughness": {
        "baseColorFactor": [
          0.5882,
          0.5882,
          0.5882,
          1
        ],
        "metallicFactor": 0,
        "roughnessFactor": 0.99
      },
      "emissiveFactor": [
        0,
        0,
        0
      ],
      "alphaMode": "OPAQUE",
      "doubleSided": false
    },
    {
      "name": "Material__24",
      "pbrMetallicRoughness": {
        "baseColorFactor": [
          0.588,
          0.588,
          0.588,
          1
        ],
        "metallicFactor": 0,
        "roughnessFactor": 0.99
      },
      "emissiveFactor": [
        0,
        0,
        0
      ],
      "alphaMode": "OPAQUE",
      "doubleSided": false
    },
    {
      "name": "Material__1411751",
      "pbrMetallicRoughness": {
        "baseColorFactor": [
          0.5882,
          0.5882,
          0.5882,
          1
        ],
        "metallicFactor": 0,
        "roughnessFactor": 0.99
      },
      "emissiveFactor": [
        0,
        0,
        0
      ],
      "alphaMode": "OPAQUE",
      "doubleSided": false
    },
    {
      "name": "Material__2",
      "pbrMetallicRoughness": {
        "baseColorFactor": [
          0.588,
          0.588,
          0.588,
          1
        ],
        "metallicFactor": 0,
        "roughnessFactor": 0.99
      },
      "emissiveFactor": [
        0,
        0,
        0
      ],
      "alphaMode": "OPAQUE",
      "doubleSided": false
    },
    {
      "name": "Material__1411790",
      "pbrMetallicRoughness": {
        "baseColorFactor": [
          0.588,
          0.588,
          0.588,
          1
        ],
        "metallicFactor": 0,
        "roughnessFactor": 0.99
      },
      "emissiveFactor": [
        0,
        0,
        0
      ],
      "alphaMode": "OPAQUE",
      "doubleSided": false
    },
    {
      "name": "Mat3d66_615179_11_687",
      "pbrMetallicRoughness": {
        "baseColorFactor": [
          0.1176,
          0.1529,
          0.0706,
          1
        ],
        "metallicFactor": 0,
        "roughnessFactor": 0.99
      },
      "emissiveFactor": [
        0,
        0,
        0
      ],
      "alphaMode": "OPAQUE",
      "doubleSided": false
    }
  ],
  "meshes": [
    {
      "name": "2_1",
      "primitives": [
        {
          "attributes": {
            "POSITION": 0,
            "NORMAL": 1,
            "TEXCOORD_0": 2
          },
          "indices": 3,
          "material": 0,
          "mode": 4
        },
        {
          "attributes": {
            "POSITION": 4,
            "NORMAL": 5,
            "TEXCOORD_0": 6
          },
          "indices": 7,
          "material": 1,
          "mode": 4
        },
        {
          "attributes": {
            "POSITION": 8,
            "NORMAL": 9,
            "TEXCOORD_0": 10
          },
          "indices": 11,
          "material": 2,
          "mode": 4
        },
        {
          "attributes": {
            "POSITION": 12,
            "NORMAL": 13,
            "TEXCOORD_0": 14
          },
          "indices": 15,
          "material": 3,
          "mode": 4
        }
      ]
    },
    {
      "name": "2_2_1",
      "primitives": [
        {
          "attributes": {
            "POSITION": 16,
            "NORMAL": 17,
            "TEXCOORD_0": 18
          },
          "indices": 19,
          "material": 4,
          "mode": 4
        },
        {
          "attributes": {
            "POSITION": 20,
            "NORMAL": 21,
            "TEXCOORD_0": 22
          },
          "indices": 23,
          "material": 5,
          "mode": 4
        }
      ]
    }
  ],
  "nodes": [
    {
      "name": "2",
      "mesh": 0
    },
    {
      "name": "2_2",
      "mesh": 1
    }
  ],
  "scene": 0,
  "scenes": [
    {
      "nodes": [
        0,
        1
      ]
    }
  ]
}
