{
    "asset": {
        "generator": "COLLADA2GLTF",
        "version": "2.0"
    },
    "scenes": [
        {
            "nodes": [
                0
            ]
        }
    ],
    "scene": 0,
    "nodes": [
        {
            "children": [
                1
            ],
            "matrix": [
                1.0,
                0.0,
                0.0,
                0.0,
                0.0,
                0.0,
                -1.0,
                0.0,
                0.0,
                1.0,
                0.0,
                0.0,
                0.0,
                0.0,
                0.0,
                1.0
            ],
            "name": "Z_UP"
        },
        {
            "children": [
                2
            ],
            "matrix": [
                21.244569778442384,
                0.0,
                0.0,
                0.0,
                0.0,
                21.211589813232427,
                0.0,
                0.0,
                0.0,
                0.0,
                21.211589813232427,
                0.0,
                -0.06367357075214386,
                0.0005336059839464724,
                -0.8636671900749207,
                1.0
            ],
            "name": "_"
        },
        {
            "mesh": 0,
            "matrix": [
                1.0,
                0.0,
                0.0,
                0.0,
                0.0,
                1.0,
                0.0,
                0.0,
                0.0,
                0.0,
                1.0,
                0.0,
                0.00001875750058388803,
                0.0009568230016157032,
                0.0015168859390541912,
                1.0
            ]
        }
    ],
    "meshes": [
        {
            "primitives": [
                {
                    "attributes": {
                        "NORMAL": 1,
                        "POSITION": 2,
                        "TEXCOORD_0": 3
                    },
                    "indices": 0,
                    "mode": 4,
                    "material": 0
                },
                {
                    "attributes": {
                        "NORMAL": 5,
                        "POSITION": 6,
                        "TEXCOORD_0": 7
                    },
                    "indices": 4,
                    "mode": 4,
                    "material": 1
                },
                {
                    "attributes": {
                        "NORMAL": 9,
                        "POSITION": 10
                    },
                    "indices": 8,
                    "mode": 4,
                    "material": 2
                },
                {
                    "attributes": {
                        "NORMAL": 12,
                        "POSITION": 13,
                        "TEXCOORD_0": 14
                    },
                    "indices": 11,
                    "mode": 4,
                    "material": 3
                },
                {
                    "attributes": {
                        "NORMAL": 16,
                        "POSITION": 17,
                        "TEXCOORD_0": 18
                    },
                    "indices": 15,
                    "mode": 4,
                    "material": 4
                },
                {
                    "attributes": {
                        "NORMAL": 20,
                        "POSITION": 21,
                        "TEXCOORD_0": 22
                    },
                    "indices": 19,
                    "mode": 4,
                    "material": 5
                }
            ],
            "name": "_"
        }
    ],
    "accessors": [
        {
            "bufferView": 0,
            "byteOffset": 0,
            "componentType": 5123,
            "count": 6186,
            "max": [
                1538
            ],
            "min": [
                0
            ],
            "type": "SCALAR"
        },
        {
            "bufferView": 1,
            "byteOffset": 0,
            "componentType": 5126,
            "count": 1539,
            "max": [
                0.9997478127479552,
                0.9987639784812928,
                0.9640828371047974
            ],
            "min": [
                -0.999789535999298,
                -0.9999960064888,
                -0.9988979697227478
            ],
            "type": "VEC3"
        },
        {
            "bufferView": 1,
            "byteOffset": 18468,
            "componentType": 5126,
            "count": 1539,
            "max": [
                0.008304734714329243,
                0.006938491016626358,
                0.07658954709768295
            ],
            "min": [
                -0.008307505398988724,
                -0.007107834797352552,
                0.002595389960333705
            ],
            "type": "VEC3"
        },
        {
            "bufferView": 2,
            "byteOffset": 0,
            "componentType": 5126,
            "count": 1539,
            "max": [
                0.9997736215591432,
                0.9564579725265504
            ],
            "min": [
                0.00410433067008853,
                0.003914475440979004
            ],
            "type": "VEC2"
        },
        {
            "bufferView": 0,
            "byteOffset": 12372,
            "componentType": 5123,
            "count": 8358,
            "max": [
                2332
            ],
            "min": [
                0
            ],
            "type": "SCALAR"
        },
        {
            "bufferView": 1,
            "byteOffset": 36936,
            "componentType": 5126,
            "count": 2333,
            "max": [
                0.9986903071403505,
                0.9999254941940308,
                0.9970679879188538
            ],
            "min": [
                -0.9996759295463562,
                -0.9999036192893982,
                -0.9996678233146668
            ],
            "type": "VEC3"
        },
        {
            "bufferView": 1,
            "byteOffset": 64932,
            "componentType": 5126,
            "count": 2333,
            "max": [
                0.014661270193755629,
                0.007283554878085852,
                0.07991410791873932
            ],
            "min": [
                -0.014698789454996586,
                -0.011484949849545956,
                -0.0015143619384616614
            ],
            "type": "VEC3"
        },
        {
            "bufferView": 2,
            "byteOffset": 12312,
            "componentType": 5126,
            "count": 2333,
            "max": [
                0.9911746382713318,
                0.9546462297439576
            ],
            "min": [
                0.00001406820047122892,
                0.0011069178581237794
            ],
            "type": "VEC2"
        },
        {
            "bufferView": 0,
            "byteOffset": 29088,
            "componentType": 5123,
            "count": 1032,
            "max": [
                499
            ],
            "min": [
                0
            ],
            "type": "SCALAR"
        },
        {
            "bufferView": 1,
            "byteOffset": 92928,
            "componentType": 5126,
            "count": 500,
            "max": [
                0.9998832941055298,
                0.9992309212684633,
                0.9966344237327576
            ],
            "min": [
                -0.9998837113380432,
                -0.998586118221283,
                -0.9902498126029968
            ],
            "type": "VEC3"
        },
        {
            "bufferView": 1,
            "byteOffset": 98928,
            "componentType": 5126,
            "count": 500,
            "max": [
                0.004669677931815386,
                0.0028711569029837848,
                0.07487767189741135
            ],
            "min": [
                -0.004634121898561716,
                -0.005366459954530001,
                0.06391482055187226
            ],
            "type": "VEC3"
        },
        {
            "bufferView": 0,
            "byteOffset": 31152,
            "componentType": 5123,
            "count": 327,
            "max": [
                96
            ],
            "min": [
                0
            ],
            "type": "SCALAR"
        },
        {
            "bufferView": 1,
            "byteOffset": 104928,
            "componentType": 5126,
            "count": 97,
            "max": [
                0.9036723971366882,
                0.9990665316581726,
                0.9945123195648192
            ],
            "min": [
                -0.9350104331970216,
                -0.9178904294967653,
                -0.9946749806404114
            ],
            "type": "VEC3"
        },
        {
            "bufferView": 1,
            "byteOffset": 106092,
            "componentType": 5126,
            "count": 97,
            "max": [
                -0.0026907629799097778,
                -0.0012794400099664929,
                0.07173147797584534
            ],
            "min": [
                -0.005862720776349306,
                -0.007427135948091745,
                0.06591799855232239
            ],
            "type": "VEC3"
        },
        {
            "bufferView": 2,
            "byteOffset": 30976,
            "componentType": 5126,
            "count": 97,
            "max": [
                0.15551410615444184,
                0.8886550068855286
            ],
            "min": [
                0.022412139922380449,
                0.8081557154655457
            ],
            "type": "VEC2"
        },
        {
            "bufferView": 0,
            "byteOffset": 31806,
            "componentType": 5123,
            "count": 2388,
            "max": [
                1540
            ],
            "min": [
                0
            ],
            "type": "SCALAR"
        },
        {
            "bufferView": 1,
            "byteOffset": 107256,
            "componentType": 5126,
            "count": 1541,
            "max": [
                1.0,
                0.9993448257446288,
                0.999988615512848
            ],
            "min": [
                -0.9664193391799928,
                -0.999274730682373,
                -0.9999957084655762
            ],
            "type": "VEC3"
        },
        {
            "bufferView": 1,
            "byteOffset": 125748,
            "componentType": 5126,
            "count": 1541,
            "max": [
                0.0013792909448966385,
                0.009571300819516182,
                0.04549672082066536
            ],
            "min": [
                -0.011968139559030533,
                -0.0005157350096851587,
                0.03522429987788201
            ],
            "type": "VEC3"
        },
        {
            "bufferView": 2,
            "byteOffset": 31752,
            "componentType": 5126,
            "count": 1541,
            "max": [
                0.855831503868103,
                0.9435277581214904
            ],
            "min": [
                0.09862834215164185,
                0.08542370796203613
            ],
            "type": "VEC2"
        },
        {
            "bufferView": 0,
            "byteOffset": 36582,
            "componentType": 5123,
            "count": 15792,
            "max": [
                2633
            ],
            "min": [
                0
            ],
            "type": "SCALAR"
        },
        {
            "bufferView": 1,
            "byteOffset": 144240,
            "componentType": 5126,
            "count": 2634,
            "max": [
                0.9997681379318236,
                0.9927974343299866,
                0.9987583160400392
            ],
            "min": [
                -0.9999589920043944,
                -0.9972702860832214,
                -0.9929782152175904
            ],
            "type": "VEC3"
        },
        {
            "bufferView": 1,
            "byteOffset": 175848,
            "componentType": 5126,
            "count": 2634,
            "max": [
                0.00638709869235754,
                0.008617275394499302,
                0.06609805673360825
            ],
            "min": [
                -0.01124532986432314,
                -0.007323544006794691,
                0.04034037888050079
            ],
            "type": "VEC3"
        },
        {
            "bufferView": 2,
            "byteOffset": 44080,
            "componentType": 5126,
            "count": 2634,
            "max": [
                0.15583999454975129,
                1.322729229927063
            ],
            "min": [
                -0.21875330805778504,
                0.7763679027557373
            ],
            "type": "VEC2"
        }
    ],
    "materials": [
        {
            "pbrMetallicRoughness": {
                "baseColorFactor": [
                    1.0,
                    1.0,
                    1.0,
                    1.0
                ],
                "baseColorTexture": {
                    "index": 0
                },
                "metallicFactor": 0.0
            },
            "emissiveFactor": [
                0.0,
                0.0,
                0.0
            ],
            "occlusionTexture": {
                "index": 0
            },
            "name": "_3_-_Default"
        },
        {
            "pbrMetallicRoughness": {
                "baseColorFactor": [
                    1.0,
                    1.0,
                    1.0,
                    1.0
                ],
                "baseColorTexture": {
                    "index": 1
                },
                "metallicFactor": 0.0
            },
            "emissiveFactor": [
                0.0,
                0.0,
                0.0
            ],
            "occlusionTexture": {
                "index": 1
            },
            "name": "Material__24"
        },
        {
            "pbrMetallicRoughness": {
                "baseColorFactor": [
                    0.5882353186607361,
                    0.5882353186607361,
                    0.5882353186607361,
                    1.0
                ],
                "metallicFactor": 0.0
            },
            "emissiveFactor": [
                0.0,
                0.0,
                0.0
            ],
            "name": "Material__1411751"
        },
        {
            "pbrMetallicRoughness": {
                "baseColorFactor": [
                    1.0,
                    1.0,
                    1.0,
                    1.0
                ],
                "baseColorTexture": {
                    "index": 2
                },
                "metallicFactor": 0.0
            },
            "emissiveFactor": [
                0.0,
                0.0,
                0.0
            ],
            "occlusionTexture": {
                "index": 2
            },
            "name": "Material__2"
        },
        {
            "pbrMetallicRoughness": {
                "baseColorFactor": [
                    1.0,
                    1.0,
                    1.0,
                    1.0
                ],
                "baseColorTexture": {
                    "index": 3
                },
                "metallicFactor": 0.0
            },
            "emissiveFactor": [
                0.0,
                0.0,
                0.0
            ],
            "occlusionTexture": {
                "index": 3
            },
            "name": "Material__1411790"
        },
        {
            "pbrMetallicRoughness": {
                "baseColorFactor": [
                    1.0,
                    1.0,
                    1.0,
                    1.0
                ],
                "baseColorTexture": {
                    "index": 4
                },
                "metallicFactor": 0.0
            },
            "emissiveFactor": [
                0.0,
                0.0,
                0.0
            ],
            "occlusionTexture": {
                "index": 4
            },
            "name": "Material__1411862"
        }
    ],
    "textures": [
        {
            "sampler": 0,
            "source": 0
        },
        {
            "sampler": 0,
            "source": 1
        },
        {
            "sampler": 0,
            "source": 2
        },
        {
            "sampler": 0,
            "source": 3
        },
        {
            "sampler": 0,
            "source": 4
        }
    ],
    "images": [
        {
            "uri": "data:image/jpeg;base64,"
        },
        {
            "uri": "data:image/jpeg;base64,"
        },
        {
            "uri": "data:image/jpeg;base64,"
        },
        {
            "uri": "data:image/jpeg;base64,"
        },
        {
            "uri": "data:image/jpeg;base64,"
        }
    ],
    "samplers": [
        {
            "magFilter": 9729,
            "minFilter": 9986,
            "wrapS": 10497,
            "wrapT": 10497
        }
    ],
    "bufferViews": [
        {
            "buffer": 0,
            "byteOffset": 272608,
            "byteLength": 68166,
            "target": 34963
        },
        {
            "buffer": 0,
            "byteOffset": 0,
            "byteLength": 207456,
            "byteStride": 12,
            "target": 34962
        },
        {
            "buffer": 0,
            "byteOffset": 207456,
            "byteLength": 65152,
            "byteStride": 8,
            "target": 34962
        }
    ],
    "buffers": [
        {
            "byteLength": 340774,
            "uri": "data:application/octet-stream;base64,"
        }
    ]
}
