{
  "accessors": [
    {
      "name": "1_1_0_positions",
      "componentType": 5126,
      "count": 1560,
      "min": [
        -87.72720336914062,
        -2.6050000190734863,
        -17.433700561523438
      ],
      "max": [
        -87.37429809570312,
        -1.0533000230789185,
        -17.107799530029297
      ],
      "type": "VEC3",
      "bufferView": 0,
      "byteOffset": 0
    },
    {
      "name": "1_1_0_normals",
      "componentType": 5126,
      "count": 1560,
      "min": [
        -0.9996362924575806,
        -0.9988995790481567,
        -0.9968653321266174
      ],
      "max": [
        0.9996362924575806,
        0.9705403447151184,
        0.9999960660934448
      ],
      "type": "VEC3",
      "bufferView": 1,
      "byteOffset": 0
    },
    {
      "name": "1_1_0_texcoords",
      "componentType": 5126,
      "count": 1560,
      "min": [
        0.004100000020116568,
        0.0038999998942017555
      ],
      "max": [
        0.9998000264167786,
        0.9564999938011169
      ],
      "type": "VEC2",
      "bufferView": 2,
      "byteOffset": 0
    },
    {
      "name": "1_1_0_indices",
      "componentType": 5123,
      "count": 6186,
      "min": [
        0
      ],
      "max": [
        1559
      ],
      "type": "SCALAR",
      "bufferView": 3,
      "byteOffset": 0
    },
    {
      "name": "1_1_1_positions",
      "componentType": 5126,
      "count": 2609,
      "min": [
        -87.85880279541016,
        -2.692199945449829,
        -17.44099998474121
      ],
      "max": [
        -87.23930358886719,
        -0.9900000095367432,
        -16.96500015258789
      ],
      "type": "VEC3",
      "bufferView": 0,
      "byteOffset": 18720
    },
    {
      "name": "1_1_1_normals",
      "componentType": 5126,
      "count": 2609,
      "min": [
        -0.9996756911277771,
        -0.9987567067146301,
        -0.9999255537986755
      ],
      "max": [
        0.9987637996673584,
        0.9987146258354187,
        0.9999033808708191
      ],
      "type": "VEC3",
      "bufferView": 1,
      "byteOffset": 18720
    },
    {
      "name": "1_1_1_texcoords",
      "componentType": 5126,
      "count": 2609,
      "min": [
        0,
        0.0010999999940395355
      ],
      "max": [
        0.9911999702453613,
        0.9545999765396118
      ],
      "type": "VEC2",
      "bufferView": 2,
      "byteOffset": 12480
    },
    {
      "name": "1_1_1_indices",
      "componentType": 5123,
      "count": 9552,
      "min": [
        0
      ],
      "max": [
        2608
      ],
      "type": "SCALAR",
      "bufferView": 3,
      "byteOffset": 12372
    },
    {
      "name": "1_1_2_positions",
      "componentType": 5126,
      "count": 526,
      "min": [
        -87.51850128173828,
        -1.531499981880188,
        -17.120899200439453
      ],
      "max": [
        -87.43190002441406,
        -1.4532999992370605,
        -16.99209976196289
      ],
      "type": "VEC3",
      "bufferView": 0,
      "byteOffset": 50028
    },
    {
      "name": "1_1_2_normals",
      "componentType": 5126,
      "count": 526,
      "min": [
        -0.9927971363067627,
        -0.9935197830200195,
        -0.995326578617096
      ],
      "max": [
        0.9756253361701965,
        0.9864886999130249,
        0.993905246257782
      ],
      "type": "VEC3",
      "bufferView": 1,
      "byteOffset": 50028
    },
    {
      "name": "1_1_2_texcoords",
      "componentType": 5126,
      "count": 526,
      "min": [
        0.07649999856948853,
        0.09480000287294388
      ],
      "max": [
        0.8909000158309937,
        0.9018999934196472
      ],
      "type": "VEC2",
      "bufferView": 2,
      "byteOffset": 33352
    },
    {
      "name": "1_1_2_indices",
      "componentType": 5123,
      "count": 2010,
      "min": [
        0
      ],
      "max": [
        525
      ],
      "type": "SCALAR",
      "bufferView": 3,
      "byteOffset": 31476
    },
    {
      "name": "1_1_1_0_positions",
      "componentType": 5126,
      "count": 1255,
      "min": [
        -87.80500030517578,
        -1.9128999710083008,
        -17.494199752807617
      ],
      "max": [
        -87.52140045166016,
        -1.6950000524520874,
        -17.28019905090332
      ],
      "type": "VEC3",
      "bufferView": 0,
      "byteOffset": 56340
    },
    {
      "name": "1_1_1_0_normals",
      "componentType": 5126,
      "count": 1255,
      "min": [
        -0.9706530570983887,
        -0.9999945759773254,
        -0.9999995827674866
      ],
      "max": [
        0.9997904300689697,
        0.9999845027923584,
        0.9999996423721313
      ],
      "type": "VEC3",
      "bufferView": 1,
      "byteOffset": 56340
    },
    {
      "name": "1_1_1_0_texcoords",
      "componentType": 5126,
      "count": 1255,
      "min": [
        0.09860000014305115,
        0.08540000021457672
      ],
      "max": [
        0.8557999730110168,
        0.9434999823570251
      ],
      "type": "VEC2",
      "bufferView": 2,
      "byteOffset": 37560
    },
    {
      "name": "1_1_1_0_indices",
      "componentType": 5123,
      "count": 2379,
      "min": [
        0
      ],
      "max": [
        1254
      ],
      "type": "SCALAR",
      "bufferView": 3,
      "byteOffset": 35496
    },
    {
      "name": "1_1_1_1_positions",
      "componentType": 5126,
      "count": 2634,
      "min": [
        -87.78959655761719,
        -1.8042999505996704,
        -17.473899841308594
      ],
      "max": [
        -87.41510009765625,
        -1.2580000162124634,
        -17.135799407958984
      ],
      "type": "VEC3",
      "bufferView": 0,
      "byteOffset": 71400
    },
    {
      "name": "1_1_1_1_normals",
      "componentType": 5126,
      "count": 2634,
      "min": [
        -0.9990344047546387,
        -0.9906788468360901,
        -0.9982991814613342
      ],
      "max": [
        0.9992411732673645,
        0.9985117316246033,
        0.9979580044746399
      ],
      "type": "VEC3",
      "bufferView": 1,
      "byteOffset": 71400
    },
    {
      "name": "1_1_1_1_texcoords",
      "componentType": 5126,
      "count": 2634,
      "min": [
        -0.21879999339580536,
        0.7764000296592712
      ],
      "max": [
        0.155799999833107,
        1.322700023651123
      ],
      "type": "VEC2",
      "bufferView": 2,
      "byteOffset": 47600
    },
    {
      "name": "1_1_1_1_indices",
      "componentType": 5123,
      "count": 15792,
      "min": [
        0
      ],
      "max": [
        2633
      ],
      "type": "SCALAR",
      "bufferView": 3,
      "byteOffset": 40256
    }
  ],
  "asset": {
    "generator": "obj2gltf",
    "version": "2.0"
  },
  "buffers": [
    {
      "name": "kanshouji",
      "byteLength": 346528,
      "uri": "data:application/octet-stream;base64,"
    }
  ],
  "bufferViews": [
    {
      "name": "bufferView_0",
      "buffer": 0,
      "byteLength": 103008,
      "byteOffset": 0,
      "byteStride": 12,
      "target": 34962
    },
    {
      "name": "bufferView_1",
      "buffer": 0,
      "byteLength": 103008,
      "byteOffset": 103008,
      "byteStride": 12,
      "target": 34962
    },
    {
      "name": "bufferView_2",
      "buffer": 0,
      "byteLength": 68672,
      "byteOffset": 206016,
      "byteStride": 8,
      "target": 34962
    },
    {
      "name": "bufferView_3",
      "buffer": 0,
      "byteLength": 71840,
      "byteOffset": 274688,
      "target": 34963
    }
  ],
  "materials": [
    {
      "name": "03___Default",
      "pbrMetallicRoughness": {
        "baseColorFactor": [
          0.5882,
          0.5882,
          0.5882,
          1
        ],
        "metallicFactor": 0,
        "roughnessFactor": 0.99
      },
      "emissiveFactor": [
        0,
        0,
        0
      ],
      "alphaMode": "OPAQUE",
      "doubleSided": false
    },
    {
      "name": "Material__24",
      "pbrMetallicRoughness": {
        "baseColorFactor": [
          0.588,
          0.588,
          0.588,
          1
        ],
        "metallicFactor": 0,
        "roughnessFactor": 0.99
      },
      "emissiveFactor": [
        0,
        0,
        0
      ],
      "alphaMode": "OPAQUE",
      "doubleSided": false
    },
    {
      "name": "Material__1411778",
      "pbrMetallicRoughness": {
        "baseColorFactor": [
          0.588,
          0.588,
          0.588,
          1
        ],
        "metallicFactor": 0,
        "roughnessFactor": 0.99
      },
      "emissiveFactor": [
        0,
        0,
        0
      ],
      "alphaMode": "OPAQUE",
      "doubleSided": false
    },
    {
      "name": "Material__1411790",
      "pbrMetallicRoughness": {
        "baseColorFactor": [
          0.588,
          0.588,
          0.588,
          1
        ],
        "metallicFactor": 0,
        "roughnessFactor": 0.99
      },
      "emissiveFactor": [
        0,
        0,
        0
      ],
      "alphaMode": "OPAQUE",
      "doubleSided": false
    },
    {
      "name": "Mat3d66_615179_11_687",
      "pbrMetallicRoughness": {
        "baseColorFactor": [
          0.1176,
          0.1529,
          0.0706,
          1
        ],
        "metallicFactor": 0,
        "roughnessFactor": 0.99
      },
      "emissiveFactor": [
        0,
        0,
        0
      ],
      "alphaMode": "OPAQUE",
      "doubleSided": false
    }
  ],
  "meshes": [
    {
      "name": "1_1",
      "primitives": [
        {
          "attributes": {
            "POSITION": 0,
            "NORMAL": 1,
            "TEXCOORD_0": 2
          },
          "indices": 3,
          "material": 0,
          "mode": 4
        },
        {
          "attributes": {
            "POSITION": 4,
            "NORMAL": 5,
            "TEXCOORD_0": 6
          },
          "indices": 7,
          "material": 1,
          "mode": 4
        },
        {
          "attributes": {
            "POSITION": 8,
            "NORMAL": 9,
            "TEXCOORD_0": 10
          },
          "indices": 11,
          "material": 2,
          "mode": 4
        }
      ]
    },
    {
      "name": "1_1_1",
      "primitives": [
        {
          "attributes": {
            "POSITION": 12,
            "NORMAL": 13,
            "TEXCOORD_0": 14
          },
          "indices": 15,
          "material": 3,
          "mode": 4
        },
        {
          "attributes": {
            "POSITION": 16,
            "NORMAL": 17,
            "TEXCOORD_0": 18
          },
          "indices": 19,
          "material": 4,
          "mode": 4
        }
      ]
    }
  ],
  "nodes": [
    {
      "name": "1",
      "mesh": 0
    },
    {
      "name": "1_1",
      "mesh": 1
    }
  ],
  "scene": 0,
  "scenes": [
    {
      "nodes": [
        0,
        1
      ]
    }
  ]
}
