<?xml version="1.0" standalone="no"?>
<!DOCTYPE svg PUBLIC "-//W3C//DTD SVG 1.1//EN" "http://www.w3.org/Graphics/SVG/1.1/DTD/svg11.dtd" >
<!--
2013-9-30: Created.
-->
<svg>
<metadata>
Created by iconfont
</metadata>
<defs>

<font id="iconfont" horiz-adv-x="1024" >
  <font-face
    font-family="iconfont"
    font-weight="500"
    font-stretch="normal"
    units-per-em="1024"
    ascent="896"
    descent="-128"
  />
    <missing-glyph />
    
    <glyph glyph-name="shui" unicode="&#58902;" d="M512-97.724c-183.535 0-332.288 144.691-332.288 323.175 0 68.676 22.084 132.3 59.665 184.661L512.922 865.69l271.7-455.578c37.582-52.36 59.666-115.985 59.666-184.661 0-178.484-148.753-323.175-332.288-323.175z m225.963 258.56c-14.882 0-27.341-10.513-29.935-24.405-7.578-29.696-33.724-56.866-66.526-64.239-14.268-2.526-25.054-14.643-25.054-29.116 0-16.247 13.653-30.003 30.379-30.003 24.166 0 53.452 16.691 78.097 40.346 25.054 24.234 43.451 56.593 43.451 77.858-0.034 16.247-13.721 29.56-30.412 29.56z"  horiz-adv-x="1024" />

    
    <glyph glyph-name="shandian" unicode="&#59589;" d="M395.765333 309.429333h-171.733333c-22.421333 0-37.888 22.442667-29.909333 43.381334L364.768 800.725333A32 32 0 0 0 394.666667 821.333333h287.957333c22.72 0 38.208-23.018667 29.632-44.064l-99.36-243.882666h187.050667c27.509333 0 42.186667-32.426667 24.042666-53.098667l-458.602666-522.56c-22.293333-25.408-63.626667-3.392-54.976 29.28l85.354666 322.421333z"  horiz-adv-x="1024" />

    
    <glyph glyph-name="kaiwafenxi" unicode="&#58915;" d="M85.76 304.10666667h32v-64h-32zM85.76 154.77333333h32v-64h-32zM85.76 602.77333333h32v-64h-32zM85.76 752.10666667h32v-64h-32zM117.76 5.440000000000055h-32V-41.60000000000002h48.96v32h-16.96zM220.05333333-9.493333330000041h64v-32h-64zM85.76 453.44h32v-64h-32zM817.38666667-9.279999999999973h64v-32h-64zM518.72-9.386666669999954h64v-32h-64zM668.05333333-9.279999999999973h64v-32h-64zM369.38666667-9.493333330000041h64v-32h-64zM48.10666667 766.18666667h110.08l-55.04 55.04zM901.65333333 29.440000000000055v-110.08l55.04 55.04zM880 616.3199999999999L747.2 749.22666667l-53.65333333-53.65333334 42.02666666-42.02666666L531.2 449.38666667l-87.68 87.68c-11.52 11.52-29.54666667 13.33333333-43.09333333 4.26666666-20.8-13.86666667-40.85333333-30.29333333-59.73333334-49.17333333-110.61333333-110.61333333-59.2-341.44-59.2-341.44s230.82666667-51.41333333 341.44 59.2c18.88 18.88 35.30666667 39.04 49.17333334 59.73333333 9.06666667 13.54666667 7.25333333 31.57333333-4.26666667 43.09333334l-87.68 87.68 204.26666667 204.26666666 42.02666666-42.02666666 53.54666667 53.65333333z m-421.76-302.93333333c-3.84-3.84-10.24-3.84-14.08 0-3.84 3.84-3.84 10.24 0 14.08l71.68 71.68 14.08-14.08-71.68-71.68z"  horiz-adv-x="1024" />

    
    <glyph glyph-name="souzhoubian1" unicode="&#58959;" d="M757.109375 366.12304687000005c93.07617188-38.49609375 150.3984375-97.98046875 150.3984375-166.69335937 0-121.44726562-178.92773438-210.9375-395.5078125-210.9375s-395.5078125 89.49023438-395.5078125 210.9375c0 65.28515625 51.78515625 122.34375 137.109375 160.9453125a26.3671875 26.3671875 0 1 0 21.67382813-48.04101563C206.82617187 281.32617187000005 169.2265625 239.87695312000005 169.2265625 199.4296875c0-82.42382813 151.61132813-158.203125 342.7734375-158.203125s342.7734375 75.77929688 342.7734375 158.203125c0 42.8203125-42.24023438 86.74804688-117.80859375 117.96679688a26.3671875 26.3671875 0 0 0 20.14453125 48.72656249zM511.94726562 805.875C657.546875 805.875 775.671875 688.59375 775.671875 543.78515625a260.61328125 260.61328125 0 0 0-67.60546875-175.2890625l-9.65039063-10.07226563L512 173.0625 325.58398437 358.42382812000005A260.61328125 260.61328125 0 0 0 248.328125 543.73242188C248.328125 688.59375 366.34765625 805.875 512 805.875zM512 647.671875a105.890625 105.890625 0 0 1-74.671875-30.95507812A104.8359375 104.8359375 0 0 1 406.53125 542.203125a104.94140625 104.94140625 0 0 1 30.796875-74.4609375A105.99609375 105.99609375 0 0 1 512 436.734375a105.890625 105.890625 0 0 1 74.671875 30.95507812A104.94140625 104.94140625 0 0 1 617.46875 542.203125a104.94140625 104.94140625 0 0 1-30.796875 74.4609375A105.99609375 105.99609375 0 0 1 512 647.671875z"  horiz-adv-x="1024" />

    
    <glyph glyph-name="souzhoubian" unicode="&#59327;" d="M462.1501632 783.40551147c-192.72438507 0-348.9185184-156.2244736-348.9185184-348.94885974 0-192.7547264 156.19413333-348.88817813 348.9185184-348.88817813 192.66370347 0 348.9185184 156.13345173 348.9185184 348.88817813 0 192.72438507-156.25481493 348.94885973-348.9185184 348.94885974z m-0.03034133-606.81481494a257.89629653 257.89629653 0 0 0-257.89629547 257.89629654 257.9266368 257.9266368 0 0 0 515.82293333 0 257.89629653 257.89629653 0 0 0-257.92663786-257.89629654zM821.38453333-15.405511469999965l-163.9613632 164.41647467 90.14234134 88.989392 163.20284373-157.77185173-5.03656213-64.17066667-28.94506667-31.46334827zM391.03146667 528.2398816s184.77511147 36.49991147 169.87780693-149.18542187c0 0 31.49368853-63.62453333 71.72551147 0 0 0 31.46334827 246.06340693-222.73137814 222.15490347 0 0-56.61582187-20.14625173-18.87194026-72.9694816z"  horiz-adv-x="1024" />

    
    <glyph glyph-name="xunhuan" unicode="&#58941;" d="M866.986667 52.906667c-68.266667 0-122.88 54.613333-122.88 122.88s54.613333 122.88 122.88 122.88 122.88-54.613333 122.88-122.88-54.613333-122.88-122.88-122.88z m0 290.133333h-20.48v3.413333c0 129.706667-75.093333 242.346667-184.32 296.96 13.653333 23.893333 20.48 51.2 20.48 75.093334V725.333333c146.773333-64.853333 249.173333-208.213333 249.173333-378.88v-13.653333c-23.893333 3.413333-44.373333 10.24-64.853333 10.24zM512 592.213333c-68.266667 0-126.293333 54.613333-126.293333 122.88s54.613333 122.88 126.293333 122.88c68.266667 0 126.293333-54.613333 126.293333-122.88S580.266667 592.213333 512 592.213333z m-331.093333-249.173333s0-3.413333 0 0h-20.48c-20.48 0-40.96-3.413333-61.44-10.24v13.653333c0 170.666667 102.4 314.026667 249.173333 378.88v-6.826666c0-27.306667 6.826667-54.613333 20.48-75.093334-112.64-58.026667-187.733333-170.666667-187.733333-300.373333z m102.4-167.253333c0-68.266667-54.613333-122.88-122.88-122.88s-122.88 54.613333-122.88 122.88 54.613333 122.88 122.88 122.88c68.266667 3.413333 122.88-54.613333 122.88-122.88z m17.066666-88.746667c58.026667-47.786667 133.12-78.506667 211.626667-78.506667s153.6 27.306667 211.626667 78.506667c13.653333-23.893333 37.546667-44.373333 61.44-58.026667-71.68-64.853333-167.253333-102.4-273.066667-102.4-105.813333 0-201.386667 37.546667-273.066667 102.4 23.893333 17.066667 44.373333 37.546667 61.44 58.026667z m0 0"  horiz-adv-x="1024" />

    
    <glyph glyph-name="charge" unicode="&#58908;" d="M974.6882 846.6882H181.50842831a132.19662831 132.19662831 0 0 1-132.19662831-132.19662831v-660.98314338a132.19662831 132.19662831 0 0 1 132.19662831-132.19662831h793.17977169a132.19662831 132.19662831 0 0 1 132.19662831 132.19662831V714.49157169a132.19662831 132.19662831 0 0 1-132.19662831 132.19662831z m0-859.27808584H181.50842831a66.09831415 66.09831415 0 0 0-66.09831415 66.09831415V714.49157169a66.09831415 66.09831415 0 0 0 66.09831415 66.09831415h793.17977169a66.09831415 66.09831415 0 0 0 66.09831415-66.09831415v-135.50154417H644.19662831a198.29494248 198.29494248 0 1 1 0-396.58988583h396.58988585V53.50842831a66.09831415 66.09831415 0 0 0-66.09831416-66.09831415z m66.09831415 525.48159832v-264.39325663H644.19662831a132.19662831 132.19662831 0 1 0 0 264.39325663zM644.19662831 380.69508415999996m-66.09831415 0a66.09831415 66.09831415 0 1 1 132.19662831 0 66.09831415 66.09831415 0 1 1-132.19662831 0Z"  horiz-adv-x="1170" />

    
    <glyph glyph-name="jianguan" unicode="&#59034;" d="M797.32736-28.0576a31.70304 31.70304 0 1 0 0-63.40608H226.67264a31.70304 31.70304 0 1 0 0 63.40608h570.65472zM892.43648 859.46368a126.81216 126.81216 0 0 0 126.7712-126.81216v-507.12576a126.81216 126.81216 0 0 0-126.7712-126.81216H131.56352a126.81216 126.81216 0 0 0-126.7712 126.81216V732.65152A126.81216 126.81216 0 0 0 131.56352 859.46368h760.87296z m0-63.40608H131.56352c-34.97984 0-63.36512-28.38528-63.36512-63.40608v-507.12576c0-35.0208 28.38528-63.40608 63.36512-63.40608h760.87296c34.97984 0 63.36512 28.38528 63.36512 63.40608V732.65152c0 35.0208-28.38528 63.40608-63.36512 63.40608zM512 669.2864c103.2192 0 197.75488-49.5616 283.68896-148.6848a63.40608 63.40608 0 0 0 0-83.02592c-85.93408-99.1232-180.51072-148.6848-283.68896-148.6848-103.2192 0-197.75488 49.5616-283.68896 148.6848a63.40608 63.40608 0 0 0 0 83.02592c85.93408 99.1232 180.51072 148.6848 283.68896 148.6848z m0-63.40608c-83.39456 0-161.1776-40.7552-235.76576-126.81216 74.58816-86.016 152.3712-126.7712 235.76576-126.7712s161.1776 40.7552 235.76576 126.81216c-74.58816 86.016-152.3712 126.7712-235.76576 126.7712z m0-31.70304a95.10912 95.10912 0 1 0 0-190.17728 95.10912 95.10912 0 0 0 0 190.17728z m0-63.40608a31.70304 31.70304 0 1 1 0-63.40608 31.70304 31.70304 0 0 1 0 63.40608z"  horiz-adv-x="1024" />

    
    <glyph glyph-name="calender" unicode="&#58909;" d="M861.09090875-30.545454380000024L162.90909125-30.545454380000024c-36.15272719 0-65.45454562 29.30181844-65.45454562 65.45454563L97.45454562 667.63636406c0 36.15272719 29.30181844 65.45454562 65.45454563 65.45454563l109.09090875 0 0-43.63636407L162.90909125 689.45454562C150.86545438 689.45454562 141.09090875 679.6800000000001 141.09090875 667.63636406l0-632.72727281c0-12.04363594 9.77454563-21.81818156 21.81818156-21.81818156l698.18181844 0c12.04363594 0 21.81818156 9.77454563 21.81818156 21.81818156L882.90909125 667.63636406c0 12.04363594-9.77454563 21.81818156-21.81818156 21.81818156l-109.09090875 0L752 733.09090875l109.09090875 0c36.15272719 0 65.45454562-29.30181844 65.45454562-65.45454562l0-632.72727282C926.54545438-1.2436359399999901 897.24363594-30.545454380000024 861.09090875-30.545454380000024zM708.36363594 274.90909124999996c24.10909125 0 43.63636406-19.52727281 43.63636406-43.63636406s-19.52727281-43.63636406-43.63636406-43.63636407c-24.10909125 0-43.63636406 19.52727281-43.63636407 43.63636407S684.25454562 274.90909124999996 708.36363594 274.90909124999996zM708.36363594 384c-24.10909125 0-43.63636406 19.52727281-43.63636407 43.63636406s19.52727281 43.63636406 43.63636407 43.63636407c24.10909125 0 43.63636406-19.52727281 43.63636406-43.63636407S732.47272719 384 708.36363594 384zM664.72727281 798.54545438l43.63636407-1e-8 0-174.54545437-43.63636407 0L664.72727281 798.54545438zM512 274.90909124999996c24.10909125 0 43.63636406-19.52727281 43.63636406-43.63636406s-19.52727281-43.63636406-43.63636406-43.63636407-43.63636406 19.52727281-43.63636406 43.63636407S487.89090875 274.90909124999996 512 274.90909124999996zM512 471.27272719c24.10909125 0 43.63636406-19.52727281 43.63636406-43.63636407s-19.52727281-43.63636406-43.63636406-43.63636406-43.63636406 19.52727281-43.63636406 43.63636406S487.89090875 471.27272719 512 471.27272719zM402.90909125 733.09090875l218.18181844 0 0-43.63636406L402.90909125 689.45454562 402.90909125 733.09090875zM315.63636406 187.63636406c-24.10909125 0-43.63636406 19.52727281-43.63636406 43.63636407s19.52727281 43.63636406 43.63636406 43.63636406 43.63636406-19.52727281 43.63636407-43.63636406S339.74545438 187.63636406 315.63636406 187.63636406zM315.63636406 384c-24.10909125 0-43.63636406 19.52727281-43.63636406 43.63636406s19.52727281 43.63636406 43.63636406 43.63636407 43.63636406-19.52727281 43.63636407-43.63636407S339.74545438 384 315.63636406 384zM315.63636406 798.54545438l43.63636407-1e-8 0-174.54545437-43.63636407 0L315.63636406 798.54545438z"  horiz-adv-x="1024" />

    
    <glyph glyph-name="wancheng1" unicode="&#58963;" d="M1091.19068908 751.95925973C994.58798934 848.5637952 866.14463681 901.76610667 729.5232288 901.76610667c-136.6177376 0-265.05925547-53.20414613-361.6656256-149.80684694-96.60453547-96.60453547-149.80684693-225.04605333-149.80684693-361.66746026 0-136.61957227 53.20231147-265.06109013 149.80684693-361.66746027 96.60637013-96.60637013 225.047888-149.8086816 361.6656256-149.8086816 136.61957227 0 265.0629248 53.20231147 361.66746027 149.81051627 96.60453547 96.6027008 149.80684693 225.0442176 149.80684694 361.66379093s-53.20414613 265.0629248-149.80684694 361.66929493zM729.5232288-29.440401070000007c-112.1129312 0-217.51570987 43.6591072-296.7934848 122.9350464-79.27777493 79.28144427-122.93688107 184.68422293-122.93688107 296.79531947 0 112.11476587 43.6591072 217.51938027 122.93688107 296.79531947 79.27777493 79.2759392 184.6805536 122.9350464 296.7934848 122.9350464 112.11476587 0 217.5175456-43.6591072 296.79531947-122.9350464 79.2759392-79.27777493 122.9350464-184.6805536 122.9350464-296.79531947s-43.6591072-217.5175456-122.93321174-296.7934848c-79.2796096-79.2759392-184.68422293-122.93688107-296.79715413-122.93688107zM651.04729601 305.76260160000004c20.29376 19.63136853 37.45354667 35.75444907 54.08672319 52.40413973 74.20066453 74.28139947 148.23252053 148.73160747 222.36896533 223.07722774 18.89925227 18.95246293 27.3470336 18.96163733 46.222432 0.27339733 11.97074987-11.85148267 24.0405824-23.613056 35.68655894-35.77830293 14.0037952-14.6276544 14.19462293-25.04059093 0.20917546-39.10860694a293958.4098048 293958.4098048 0 0 0-337.51861973-338.9975328c-12.90837227-12.9432352-23.5763584-13.10470507-36.29390293-0.32477333a52182.7042176 52182.7042176 0 0 0-190.79437014 192.68062507c-13.07718187 13.2790176-12.76525227 24.24058453 0.35963627 38.0352032a1221.31002453 1221.31002453 0 0 0 40.45173868 40.5379776c13.7689312 13.17626453 23.9121408 12.92121707 37.63336425-0.79633707a25362.03823467 25362.03823467 0 0 0 116.3551712-117.0817824c4.2972864-4.35416747 7.45327787-9.83861973 11.23312748-14.9212352z"  horiz-adv-x="1448" />

    
    <glyph glyph-name="shuibeng" unicode="&#58916;" d="M646.47 592.62H84.387a63.991 63.991 0 0 0-63.991 63.99V832.01A63.991 63.991 0 0 0 84.386 896H646.47a63.991 63.991 0 0 0 63.847-63.991V656.61a63.991 63.991 0 0 0-63.847-63.99zM84.387 837.63a6.341 6.341 0 0 1-6.342-6.342V656.61a6.341 6.341 0 0 1 6.342-6.341H646.47a6.341 6.341 0 0 1 6.197 6.341V832.01a6.341 6.341 0 0 1-6.197 6.341z m852.348-826.406H806.303a66.73 66.73 0 0 0-66.73 67.161V444.46a66.73 66.73 0 0 0 66.73 66.297h130.432a66.73 66.73 0 0 0 66.73-66.73v-365.642a66.73 66.73 0 0 0-66.73-67.161zM806.303 453.107a9.08 9.08 0 0 1-9.08-9.08v-365.642a9.08 9.08 0 0 1 9.08-9.08h130.432a9.08 9.08 0 0 1 9.08 9.08V444.46a9.08 9.08 0 0 1-9.08 9.08zM153.999-128a28.825 28.825 0 0 0-28.825 28.825v720.62a28.825 28.825 0 0 0 57.65 0v-720.62A28.825 28.825 0 0 0 153.998-128z m591.484 463.79H573.687a28.825 28.825 0 0 0-28.825 28.825v256.83a28.825 28.825 0 0 0 57.65 0V393.44h142.827a28.825 28.825 0 0 0 0-57.65zM573.687-128a28.825 28.825 0 0 0-28.825 28.825V162.12a28.825 28.825 0 0 0 28.825 28.825h171.796a28.825 28.825 0 0 0 0-57.65H602.512v-232.471A28.825 28.825 0 0 0 573.687-128z"  horiz-adv-x="1024" />

    
    <glyph glyph-name="xunjian2" unicode="&#58921;" d="M280.025 646.08c0-97.5825 75.8925-176.7375 169.5375-176.7375 93.5775 0 169.47 79.155 169.47 176.7375C619.0325 743.64 543.14 822.75 449.5625 822.75 355.895 822.75 280.025 743.64 280.025 646.08z m529.695-568.17c-12.8025 28.4625-39.105 112.2975-69.1875 112.2975-30.0375 0-32.49-11.34-32.49-11.34l32.49-87.03-166.2975 14.5125-70.335 166.32c-68.715 169.4925-137.52 188.6175-204.66 188.6175-32.5125 0-100.755-3.8925-153.0675-69.975C94.0175 325.18499999999995 62-40.799999999999955 62-40.799999999999955h318.42l-114.435 222.48 48.33 30.5325s8.55-18.45 64.665-137.8575c56.1825-119.52 94.5-135.81 94.5-135.81h299.25c44.0325 0 79.5825 14.22 79.5825 71.145 0 56.88-42.5925 68.1975-42.5925 68.1975z m-112.3875 330.525s-30.8925-59.76-55.35-85.2975c-24.57-25.56-72.5175-90.6075-35.19-142.8525l109.8 180.27 229.23-104.5575-84.195-125.775s-11.7675-50.13 4.2525-52.245c15.975-2.1375 139.68 199.35 139.68 199.35l-308.2275 131.1075z"  horiz-adv-x="1075" />

    
    <glyph glyph-name="jiantou-copy" unicode="&#58889;" d="M793.30879402 381.75518418l-286.89534188 395.29847144-286.89534186-395.29847144h140.68954467v-393.26454163h288.91459465v393.26454163h144.18577195z"  horiz-adv-x="1024" />

    
    <glyph glyph-name="jiantou-copy1" unicode="&#58894;" d="M230.69120598 386.24481582l286.89534188-395.29847144 286.89534186 395.29847144h-140.68954467v393.26454163h-288.91459465v-393.26454163h-144.18577195z"  horiz-adv-x="1024" />

    
    <glyph glyph-name="humidity" unicode="&#58890;" d="M502.70666656 723.9466668800001a2643.24 2643.24 0 0 1-107.76-142.56000001c-27.82666688-39.67999969-52.8-78.07999969-74.18666625-114.53333343-50.82666656-86.61333375-78.86666625-158.06666625-78.86666718-206.34666657 0-162.96 128.52-294.74666625 286.66666687-294.74666718 158.13333375 0 286.66666688 131.78666625 286.66666688 294.74666718 0 48.26666625-28.03999969 119.73333375-78.86666719 206.34666657-21.38666625 36.45333375-46.36000031 74.85333375-74.18666625 114.53333344a2643.24 2643.24 0 0 1-107.76 142.55999999 2669.38666687 2669.38666687 0 0 1-25.86666656 31.50666657c-8.06666625-9.67999969-16.72000031-20.21333344-25.84000032-31.50666656zM180.94666625 260.50666687c0 62.06666625 31.32 141.88000031 87.24 237.19999969 22.27999969 37.97333344 48.13333313 77.73333375 76.85333344 118.66666688a2703.19999969 2703.19999969 0 0 0 110.26666687 145.89333281 2623.36000031 2623.36000031 0 0 0 46.58666719 56.05333406l3.73333313 4.29333281 22.93333312 26.21333344 22.93333313-26.21333344 3.73333312-4.29333281c2.94666656-3.45333375 6.38666625-7.46666625 10.24000031-12.02666719 10.97333344-12.98666625 23.20000031-27.76000031 36.34666688-44.02666687a2703.19999969 2703.19999969 0 0 0 110.26666687-145.89333281c28.72000031-40.93333312 54.55999969-80.69333344 76.85333344-118.66666688 55.92-95.32000031 87.24-175.13333344 87.24-237.19999968 0-196.27999969-155.46666656-355.70666625-347.61333375-355.70666719-192.16000031 0-347.61333375 159.42666656-347.61333375 355.70666719zM528.56 10.693333120000034c-133.94666625 0-242.52 108.96-242.52 243.37333313 0 134.4 126.04000031 66.34666687 242.52 0 116.95999969-66.62666625 242.52 134.4 242.52 0 0-134.41333313-108.58666688-243.37333313-242.53333313-243.37333312zM711.61333344 694.48000031c0 22.17333375 14.68000031 48.52000031 39.19999968 78.85333313a480.19999969 480.19999969 0 0 0 37.12000032 40.72000031l10.53333281 10.09333313 10.54666687-10.09333313 3.30666657-3.24A480.18666656 480.18666656 0 0 0 846.13333344 773.33333344a295.96000031 295.96000031 0 0 0 21.97333312-30.62666719C879.13333344 724.8 885.33333312 708.82666688 885.33333312 694.48000031c0-48.36-38.85333375-87.62666625-86.85333281-87.62666718s-86.86666687 39.26666625-86.86666687 87.62666718z m62.90666625 59.69333344c-20.23999969-25.02666656-32.42666625-46.90666687-32.42666625-59.69333344 0-31.60000031 25.27999969-57.14666625 56.38666687-57.14666718 31.09333312 0 56.37333375 25.54666687 56.37333281 57.14666718 0 7.45333313-4.37333344 18.73333313-12.70666687 32.28a266.41333313 266.41333313 0 0 1-19.70666625 27.41333344 450.19999969 450.19999969 0 0 1-23.81333344 27.02666625 368.10666656 368.10666656 0 0 1-24.10666687-27.02666625zM138.66666688 555.5066662500001c0 16.58666625 10.37333344 35.20000031 27.73333312 56.68000031a331.33333312 331.33333312 0 0 0 25.66666688 28.14666657l10.53333281 10.10666718 10.54666687-10.10666718a331.33333312 331.33333312 0 0 0 25.65333375-28.13333344c5.90666625-7.30666687 11.06666625-14.44000031 15.30666657-21.33333281 7.93333313-12.89333344 12.43999969-24.50666625 12.43999968-35.36000063 0-35.56000031-28.58666625-64.45333313-63.93333281-64.45333312-35.35999969 0-63.94666687 28.89333375-63.94666687 64.45333312z m51.43999968 37.52000063c-13.06666687-16.17333375-20.95999969-30.31999969-20.95999968-37.52000063 0-18.79999969 15.01333313-33.98666625 33.46666687-33.98666625 18.43999969 0 33.46666688 15.18666656 33.46666594 33.98666625 0 3.96-2.70666656 10.89333375-7.93333313 19.40000063a176.44000031 176.44000031 0 0 1-13.03999968 18.13333312 292.93333312 292.93333312 0 0 1-12.50666719 14.41333313 292.93333312 292.93333312 0 0 1-12.49333313-14.42666625z"  horiz-adv-x="1024" />

    
    <glyph glyph-name="dengpao" unicode="&#59226;" d="M618.1971875 45.19968749999998H405.7934375c-13.0246875 0-23.54625-10.5215625-23.54625-23.5096875 0-12.9684375 10.5215625-23.5275 23.54625-23.5275h212.40375c12.9703125 0 23.510625 10.5590625 23.510625 23.5275 0 12.9890625-10.5403125 23.5096875-23.510625 23.5096875M564.4521875-47.49187500000005H459.539375c-12.9684375 0-23.4909375-10.539375-23.4909375-23.5078125 0-12.9703125 10.5215625-23.5284375 23.4909375-23.5284375h104.9128125c12.969375 0 23.4909375 10.558125 23.4909375 23.5284375 0 12.9684375-10.5215625 23.5078125-23.4909375 23.5078125M511.9025 708.0890625c-156.1171875 0-282.6890625-124.1990625-282.6890625-277.475625 0-72.6571875 22.35-124.010625 52.5871875-161.124375 51.97125-56.19375 104.7075-80.88 113.6775-177.178125h232.7915625c9.0065625 96.298125 61.708125 120.984375 113.9390625 177.178125 35.1328125 41.43 52.5496875 88.4671875 52.5496875 161.124375 0 153.2765625-126.7584375 277.475625-282.8559375 277.475625m195.099375-407.4103125c-10.2225-10.9509375-20.8921875-20.9484375-31.190625-30.6665625-35.0203125-32.9475-71.0690625-66.826875-87.178125-130.6640625h-51.7078125V329.2903125l73.29375 73.573125c9.1753125 9.17625 9.1378125 24.069375-0.0375 33.245625-9.195 9.1940625-24.069375 9.1565625-33.264375-0.075l-64.9021875-65.16375-64.9584375 65.16375c-9.17625 9.2315625-24.069375 9.2690625-33.2446875 0.075-9.195-9.17625-9.2325-24.069375-0.09375-33.245625l76.2084375-76.47v-187.0453125H435.153125c-16.0715625 63.6871875-51.93375 97.5121875-86.8415625 130.44-10.20375 9.643125-20.8190625 19.621875-30.946875 30.4978125-27.6759375 34.5159375-41.113125 77.161875-41.113125 130.3284375 0 127.0575 105.71625 230.4196875 235.651875 230.4196875 130.010625 0 235.81875-103.3621875 235.81875-230.4196875-0.0009375-57.7265625-11.773125-95.45625-40.7203125-129.935625M510.78125 756.6956250000001c12.988125 0 23.5096875 10.5215625 23.5096875 23.4909375V840.5090625C534.29 853.4784375 523.769375 864 510.78125 864c-12.969375 0-23.49-10.5215625-23.49-23.4909375v-60.3234375c0-12.9684375 10.520625-23.49 23.49-23.49M859.9775 715.096875c-9.1734375 9.13875-24.1059375 9.10125-33.2625-0.075l-48.7921875-48.999375c-9.13875-9.1753125-9.1021875-24.069375 0.075-33.2446875a23.525625 23.525625 0 0 1 16.575-6.8578125 23.5546875 23.5546875 0 0 1 16.6884375 6.9328125l48.7921875 48.980625c9.155625 9.2128125 9.155625 24.1059375-0.0759375 33.2634375M245.976875 632.7778125c9.195 9.1575 9.2315625 24.031875 0.0375 33.2634375l-48.7565625 48.999375c-9.1378125 9.17625-24.069375 9.21375-33.2634375 0.0375-9.1753125-9.1575-9.2128125-24.050625-0.075-33.2259375l48.811875-48.999375c4.5778125-4.6153125 10.633125-6.9140625 16.6321875-6.9140625a23.578125 23.578125 0 0 1 16.6134375 6.8390625"  horiz-adv-x="1024" />

    
    <glyph glyph-name="jiankong" unicode="&#58883;" d="M644.65895937 646.66864131c-108.38757217 0-210.28786084-42.20895937-286.92962401-118.85072256C281.08757217 451.17745635 238.87861279 349.27716768000005 238.87861279 240.88959550000004c0-22.98511583 18.63338115-41.61849697 41.61849698-41.61849696 22.98511583 0 41.61849697 18.63338115 41.61849697 41.61849697 0 86.15419102 33.54971133 167.15158945 94.47138721 228.07196543 60.92037598 60.92037598 141.91777441 94.47138721 228.07196542 94.47138721s167.15158945-33.54971133 228.07196543-94.47138721C933.65130078 408.04118496 967.20231201 327.04378652 967.20231201 240.88959550000004c0-22.98511583 18.63338115-41.61849697 41.61849697-41.61849696 22.98511583 0 41.61849697 18.63338115 41.61849698 41.61849697 0 108.38757217-42.20895937 210.28786084-118.85072256 286.92962402C854.94682109 604.46098271 753.04653154 646.66864131 644.65895937 646.66864131zM644.65895937 834C322.86473984 834 62 573.1352601599999 62 251.34104062999995c0-117.05072256 34.52384356-226.03526016 93.93294815-317.34104063h977.45332323C1192.79407519 25.305780469999945 1227.31791875 134.29031807 1227.31791875 251.34104062999995 1227.31791875 573.1352601599999 966.45317891 834 644.65895937 834z m441.27052032-816.76300605H203.38843906C165.23078047 89.01199394000002 145.23699394 169.10809247999998 145.23699394 251.34104062999995c0 67.45838115 13.19306396 132.85404668 39.21242783 194.37268799 25.14927744 59.46112705 61.17138721 112.87976836 107.06488419 158.77196542 45.89219619 45.89349697 99.31083838 81.91430596 158.77196542 107.06488419C511.80491357 737.56994209 577.20057823 750.76300606 644.65895937 750.76300606c67.45838115 0 132.85404668-13.19306396 194.372688-39.21242783 59.46112705-25.14927744 112.87976836-61.17138721 158.77196542-107.06488419 45.89349697-45.89219619 81.91430596-99.31083838 107.06488419-158.77196542C1130.88786084 384.19508643 1144.08092481 318.79942177 1144.08092481 251.34104062999995c0-82.23294815-19.99378652-162.32904668-58.15144512-234.10404669zM670.98395937 276.74653154c-13.00578047 0.00650302-25.89450908-2.43208125-37.99898789-7.19089541l-89.85303544 89.85303457c-16.25332412 16.2559248-42.60433536 16.25332412-58.8576586 0.00130078-16.25332412-16.25332412-16.25332412-42.60563614 0-58.85765947l89.85433535-89.85433535a103.725 103.725 0 0 1-7.19089628-37.99898789c0-57.46343906 46.58280381-104.04624287 104.04624286-104.04624288s104.04624287 46.58280381 104.04624287 104.04624288-46.58410372 104.04754365-104.04624287 104.04754277z"  horiz-adv-x="1325" />

    
    <glyph glyph-name="peidianfang" unicode="&#59113;" d="M438.81813333 123.49440000000004l264.32853334 213.53813333c0 1.09226667-0.54613333 1.6384-0.54613334 2.73066667h-151.82506666l-1.09226667 2.73066667 84.65066667 128.34133333c-2.73066667 0-4.36906667 0.54613333-5.46133334 0.54613333h-110.31893333c-3.82293333 0-9.28426667-3.2768-11.4688-6.5536-31.1296-40.96-61.71306667-82.46613333-92.84266667-123.97226666-10.37653333-14.19946667-20.75306667-28.39893333-32.768-44.2368H490.15466667l-52.4288-171.48586667 1.09226666-1.6384zM962.56 431.5136c0-15.83786667-12.56106667-28.39893333-28.39893333-28.39893333-7.09973333 0-13.65333333 2.73066667-18.56853334 7.09973333l-1.6384 1.6384-388.84693333 335.872-371.37066667-332.04906667h61.71306667c19.11466667 0 34.4064-15.29173333 34.4064-34.4064V18.09066667000002h565.79413333v323.85706666 1.09226667c0 15.83786667 12.56106667 28.39893333 28.39893334 28.39893333s28.39893333-12.56106667 28.39893333-28.39893333v-347.88693333c0-19.11466667-15.29173333-34.4064-34.4064-34.4064h-611.66933333c-19.11466667 0-34.4064 15.29173333-34.4064 34.4064v363.17866666H95.8464c-14.19946667 0-26.76053333 8.73813333-31.67573333 21.84533334-5.46133333 13.1072-1.6384 27.8528 8.73813333 37.6832L501.07733333 803.4304c13.1072 12.01493333 33.31413333 12.56106667 46.42133334 0.54613333l404.6848-350.07146666c6.5536-5.46133333 10.37653333-13.1072 10.37653333-22.39146667z"  horiz-adv-x="1024" />

    
    <glyph glyph-name="shexiangtou" unicode="&#58912;" d="M983.53706667 461.12a193.2544 193.2544 0 0 0-53.16693334-68.4224 27.66506667 27.66506667 0 0 0 6.31146667-32.04586667l-93.71093333-200.93546666a27.71733333 27.71733333 0 0 0-36.83306667-13.40373334l-79.63413333 37.13066667a83.17226667 83.17226667 0 0 0-94.512-17.0912l-159.14666667 74.2016-53.8848-107.74506667a82.70293333 82.70293333 0 0 0-74.3776-45.9552H204.1504v-27.71413333a83.2384 83.2384 0 0 0-83.1488-83.1392h-55.43466667a27.71413333 27.71413333 0 0 0-27.71626666 27.712V280.84586666999996a27.7152 27.7152 0 0 0 27.7152 27.71413333h55.4336a83.28106667 83.28106667 0 0 0 78.384-55.42826667h93.80373333l28.87146667 57.72586667L179.83253333 377.17333333c-69.25546667 32.2912-99.32586667 114.8992-67.0304 184.14613334l70.28266667 150.70293333c32.29546667 69.24693333 114.91306667 99.30666667 184.16533333 67.024l602.88-281.0912a27.71733333 27.71733333 0 0 0 13.40693334-36.8352zM121.0016 253.13386666999997h-27.71733333v-221.70666667h27.7152a27.74613333 27.74613333 0 0 1 27.71733333 27.71413333V225.41973332999999a27.74613333 27.74613333 0 0 1-27.7152 27.71413334z m683.44213333-44.87573334l70.28693334 150.7008-2.5824 1.20213334a194.13333333 194.13333333 0 0 0-63.21066667-11.12426667L754.2048 231.67999999999995z m-494.12906666-10.54933333h-106.16426667v-55.42613333h140.432a27.568 27.568 0 0 1 24.79573333 15.31733333l53.2096 106.39146667-50.26986666 23.43786666-37.2128-74.40213333a27.71626667 27.71626667 0 0 0-24.7904-15.3184zM198.18133333 613.2447999999999l-35.14026666-75.3504a83.232 83.232 0 0 1 40.21333333-110.4864L655.41866667 216.58666667a27.70346667 27.70346667 0 0 1 36.832 13.40373333l59.3952 127.36a196.3552 196.3552 0 0 0-25.94773334 9.93173333z m145.6416 115.56693333a83.24373333 83.24373333 0 0 1-110.4992-40.21333333l-11.71306666-25.11786667 527.5136-245.95626666a138.7072 138.7072 0 0 1 169.9584 43.06986666z m284.784-438.56533333l-100.48 46.84906667a27.71413333 27.71413333 0 1 0 23.4304 50.2336l100.48-46.84906667a27.71413333 27.71413333 0 1 0-23.4304-50.2336z m-289.7344 137.94133333a27.71413333 27.71413333 0 1 0 27.71626667 27.71306667 27.7152 27.7152 0 0 0-27.71626667-27.71306667z m-100.46293333 46.8544a27.71413333 27.71413333 0 1 0 27.71626667 27.71413334 27.71626667 27.71626667 0 0 0-27.71626667-27.71413334z"  horiz-adv-x="1024" />

    
    <glyph glyph-name="leidatance" unicode="&#59649;" d="M512 832C264.8 832 64 631.2 64 384s200.8-448 448-448 448 200.8 448 448S759.2 832 512 832z m-16-831.2c-199.2 8-359.2 168.8-367.2 367.2h128C264.8 239.2 368 136.8 496 128.8v-128z m0 192c-92.8 8-167.2 82.4-175.2 175.2h129.6c5.6-22.4 23.2-40 45.6-45.6v-129.6z m0 252.8c-22.4-5.6-39.2-23.2-45.6-45.6H320.8c8 92.8 82.4 167.2 175.2 175.2v-129.6z m0 193.6C367.2 631.2 264.8 528 256.8 400h-128c8 199.2 168.8 359.2 367.2 367.2v-128z m32-64c17.6-1.6 34.4-5.6 49.6-11.2 4.8 22.4 17.6 41.6 35.2 55.2-26.4 11.2-55.2 18.4-84.8 20.8V768c92-4 176-40 240-97.6L722.4 624c8.8-5.6 17.6-12.8 24-21.6l44.8 44.8c61.6-64.8 100.8-152 104.8-247.2H768c-1.6 29.6-8.8 58.4-20 84.8-13.6-17.6-32.8-30.4-55.2-35.2 5.6-16 9.6-32 11.2-49.6H574.4c-2.4 8-5.6 14.4-10.4 20.8l47.2 47.2c-8 6.4-15.2 15.2-21.6 24l-50.4-50.4c-4 1.6-7.2 3.2-12 4V575.2z m0-253.6c22.4 5.6 40.8 23.2 46.4 46.4h128.8c-8-92.8-82.4-167.2-175.2-175.2V321.6z m0-320.8v128C656.8 136.8 759.2 240 767.2 368h128c-8-199.2-168-359.2-367.2-367.2z m143.2 478.4c-35.2 0-64 28.8-64 64s28.8 64 64 64 64-28.8 64-64-28.8-64-64-64z"  horiz-adv-x="1024" />

    
    <glyph glyph-name="kaishixunjian" unicode="&#58881;" d="M512 883.2C236.749 883.2 12.8 659.251 12.8 384s223.949-499.2 499.2-499.2a496.486 496.486 0 0 1 424.653 236.698l3.225 5.273c3.533 5.888 6.964 11.776 10.292 17.869a38.502 38.502 0 0 1-15.002 52.224 38.605 38.605 0 0 1-52.224-15.002 407.04 407.04 0 0 0-8.806-15.257l-2.816-4.66A419.994 419.994 0 0 0 512-38.4C279.091-38.4 89.6 151.091 89.6 384S279.142 806.4 512 806.4 934.4 616.909 934.4 384a38.4 38.4 0 0 1 76.8 0c0 275.251-223.949 499.2-499.2 499.2zM425.626 598.272a38.4 38.4 0 0 1-57.6-33.28v-361.984a38.298 38.298 0 0 1 57.6-33.229l313.548 180.992a38.4 38.4 0 0 1 0 66.458L425.626 598.272z m19.2-328.755V498.483L643.174 384 444.826 269.517z"  horiz-adv-x="1024" />

    
    <glyph glyph-name="jia" unicode="&#58928;" d="M90.125 430.8668518h843.75V337.13232422H90.125zM465.1331482 805.875H558.86767578v-843.75H465.13232422z"  horiz-adv-x="1024" />

    
    <glyph glyph-name="jian" unicode="&#58990;" d="M80 441.6h864v-115.2H80z"  horiz-adv-x="1024" />

    
    <glyph glyph-name="weizhi" unicode="&#58944;" d="M511.99856094-92.09352844c0 0-357.0679875 397.91805188-357.0679875 595.11811031 0 197.18278969 159.87080719 357.06990656 357.0679875 357.06990657 197.19813938 0 357.07086563-159.88711688 357.07086562-357.06990657C869.06942656 305.8254825 511.99856094-92.09352844 511.99856094-92.09352844zM511.99856094 741.07086563c-131.45967 0-238.04628469-106.58661469-238.04628469-238.04724376 0-131.47789781 106.58661469-238.04724375 238.04628469-238.04724375 131.46063 0 238.04532563 106.56934594 238.04532562 238.04724375C750.04388656 634.48617 643.45919094 741.07086563 511.99856094 741.07086563zM511.99856094 384.00191906c-65.73751031 0-119.02170375 53.2851525-119.02170375 119.02170375 0 65.73846937 53.28419344 119.02362188 119.02170375 119.02362188 65.73751031 0 119.02458094-53.2851525 119.02458094-119.02362188C631.02314187 437.28707156 577.73607125 384.00191906 511.99856094 384.00191906z"  horiz-adv-x="1024" />

    
    <glyph glyph-name="gengduo" unicode="&#58893;" d="M429.714286 576l-340.114286-312.685714a53.394286 53.394286 0 0 1-16.457143-36.571429 52.297143 52.297143 0 0 1 16.457143-38.4 53.028571 53.028571 0 0 1 76.8 0l340.114286 312.685714c5.485714 5.485714 10.971429 5.48571399 10.971428 0l340.114286-318.171428A52.297143 52.297143 0 0 1 896.00000001 164.57142899999997a53.394286 53.394286 0 0 1 38.39999999 16.457142A73.142857 73.142857 0 0 1 950.857143 219.42857100000003a50.834286 50.834286 0 0 1-16.457143 38.4l-340.114286 312.68571499a106.422857 106.422857 0 0 1-164.571428 5.48571401z"  horiz-adv-x="1024" />

    
    <glyph glyph-name="yundanguiji" unicode="&#59008;" d="M511.3 437.4c-64.9 0-117.7 52.8-117.7 117.7s52.8 117.7 117.7 117.7S629 620 629 555.1s-52.8-117.7-117.7-117.7z m0 171.3c-29.6 0-53.7-24.1-53.7-53.7s24.1-53.7 53.7-53.7S565 525.5 565 555c0 29.6-24.1 53.7-53.7 53.7zM514 88.1l-25.1 30.6c-2.1 2.6-52.8 64.4-107.2 144.4C307.1 372.7 264 459.7 253.5 521.9c-6.7 39.6-4.7 78.8 5.9 116.5 10.2 36 27.6 68.9 52 97.7 50.3 59.6 124.1 93.8 202.3 93.8 40.7 0 79.8-9 116.4-26.7 34.9-16.9 66.3-41.7 90.6-71.6 23.5-28.8 40-61.3 49.1-96.6 9.7-37.3 10.5-75.7 2.5-114.2-12.8-61.6-56.2-148.2-129.2-257.4-53.4-79.9-102.4-141.6-104.5-144.2L514 88.1z m-0.4 677.7c-59.3 0-115.2-25.9-153.4-71.1-18.4-21.7-31.6-46.5-39.2-73.7-8.1-28.5-9.5-58.3-4.4-88.4 6.2-36.4 31.7-106.5 118.1-233.5 29.8-43.8 58.9-82.5 78.6-108 19.3 25.6 47.7 64.4 76.9 108.2C657.4 399.9 698.7 481 709.7 533.7c11.7 56.5-2 112.4-38.6 157.4-18.5 22.7-42.3 41.5-68.9 54.4-27.9 13.5-57.7 20.3-88.6 20.3zM863.1-59.4H383.6v64h479.5c17.9 0 32.4 14.5 32.4 32.4 0 18.7-15.3 34-34 34H181c-30.9 0-60 12.1-81.9 34-21.9 21.9-33.9 51-33.8 82 0.1 63.8 52.2 115.8 116 115.8H281v-64h-99.7c-28.6 0-51.9-23.3-52-51.9 0-13.8 5.3-26.8 15.1-36.6S167.2 135 181 135h680.5c54 0 98-44 98-98 0-53.2-43.3-96.4-96.4-96.4z"  horiz-adv-x="1024" />

    
    <glyph glyph-name="xiangqing-" unicode="&#58888;" d="M788.787 793.088H235.315c-49.05 0-89.088-39.834-89.088-88.986v-641.33c0-49.05 39.936-88.986 89.088-88.986h553.37c49.05 0 88.985 39.833 88.985 88.985V704.102c0 49.152-39.833 88.986-88.883 88.986z m38.81-730.214c0-21.504-17.51-38.912-38.81-38.912H235.315c-21.401 0-38.81 17.51-38.81 38.912V704.102c0 21.402 17.409 38.81 38.81 38.81h553.37c21.401 0 38.81-17.51 38.81-38.81v-641.228zM308.94 545.485c-13.414 0-24.268 10.854-24.268 24.269v1.638c0 13.414 10.854 24.269 24.269 24.269s24.269-10.855 24.269-24.269v-1.638c0-13.415-10.957-24.27-24.27-24.27z m0-136.909c-13.414 0-24.268-10.854-24.268-24.269v-1.536c0-13.414 10.854-24.269 24.269-24.269s24.269 10.855 24.269 24.27v1.535c0 13.415-10.957 24.269-24.27 24.269z m0-187.187c-13.414 0-24.268-10.855-24.268-24.269v-1.536c0-13.414 10.854-24.269 24.269-24.269s24.269 10.855 24.269 24.269v1.536c0 13.414-10.957 24.269-24.27 24.269z m406.12 324.096H396.594c-13.414 0-24.269 10.854-24.269 24.269v1.638c0 13.414 10.855 24.269 24.27 24.269h318.463c13.415 0 24.269-10.855 24.269-24.269v-1.638c0.102-13.415-10.854-24.27-24.269-24.27z m0-136.909H396.594c-13.414 0-24.269-10.854-24.269-24.269v-1.536c0-13.414 10.855-24.269 24.27-24.269h318.463c13.415 0 24.269 10.855 24.269 24.27v1.535c0.102 13.415-10.854 24.269-24.269 24.269z m0-187.187H396.594c-13.414 0-24.269-10.855-24.269-24.269v-1.536c0-13.414 10.855-24.269 24.27-24.269h318.463c13.415 0 24.269 10.855 24.269 24.269v1.536c0.102 13.414-10.854 24.269-24.269 24.269z"  horiz-adv-x="1024" />

    
    <glyph glyph-name="fanhui" unicode="&#58931;" d="M746.37903711 19.848530279999977a49.93167656 49.93167656 0 1 0-70.6033916-70.60339073l-399.45341426 399.45341426a49.93167656 49.93167656 0 0 0 0 70.6033916l399.45341426 399.45341426a49.93167656 49.93167656 0 1 0 70.6033916-70.60339072L382.22731777 384.00024961l364.15171934-364.15171934z"  horiz-adv-x="1024" />

    
    <glyph glyph-name="shousuoshangjiantou" unicode="&#58994;" d="M877.5 330.1l-367.6 340-367.6-340c-22.5-14.5-52.5-14.5-67.5 0-15 21.7-15 50.7 0 65.1L495 778.5c0 7.2 7.5 7.2 15 7.2s7.5 0 15-7.2l420.2-383.3c22.5-21.7 15-50.6 0-65.1-22.7-14.5-52.7-14.5-67.7 0zM494.8 445.9c0 7.2 7.5 7.2 15 7.2s15 0 15-7.2L945 62.6c22.5-21.7 15-50.6 0-65.1-22.5-14.4-52.5-14.4-67.5 0L509.8 337.4 142.2-9.8c-22.5-14.5-52.5-14.5-67.5 0-15 21.7-15 50.7 0 65.1l420.1 390.6z m0 0"  horiz-adv-x="1024" />

    
    <glyph glyph-name="shousuoxiajiantou" unicode="&#59001;" d="M145.4 434.9l367.6-340 367.6 340c22.5 14.5 52.5 14.5 67.5 0 15-21.7 15-50.7 0-65.1L527.9-13.5c0-7.2-7.5-7.2-15-7.2s-7.5 0-15 7.2L77.7 369.8c-22.5 21.7-15 50.6 0 65.1 22.6 14.5 52.6 14.5 67.7 0zM528 319.1c0-7.2-7.5-7.2-15-7.2s-15 0-15 7.2L77.8 702.4c-22.5 21.7-15 50.6 0 65.1 22.5 14.4 52.5 14.4 67.5 0L513 427.6l367.6 347.2c22.5 14.5 52.5 14.5 67.5 0 15-21.7 15-50.7 0-65.1L528 319.1z m0 0"  horiz-adv-x="1024" />

    
    <glyph glyph-name="d" unicode="&#58880;" d="M512 387.714c-2.048 0-3.714-1.666-3.714-3.714s1.666-3.714 3.714-3.714c2.048 0 3.714 1.666 3.714 3.714s-1.666 3.714-3.714 3.714zM512 380.664c-1.838 0-3.336 1.496-3.336 3.336s1.496 3.336 3.336 3.336 3.336-1.496 3.336-3.336-1.496-3.336-3.336-3.336zM345.212 488.282c0 25.152-9.547 45.697-28.611 61.609-19.082 15.909-43.509 23.866-73.287 23.866-31.508 0-55.633-9.66-72.365-28.982-16.74-19.322-25.974-48.183-27.687-86.579h-64.609c0 55.626 14.585 98.633 43.751 129.041 29.161 30.398 70.449 45.595 123.862 45.595 50.452 0 91.131-12.613 122.026-37.847 30.88-25.232 46.333-58.521 46.333-99.874 0-41.103-15.509-74.335-46.519-99.689-15.194-12.705-33.569-22.143-53.738-26.961 47.338 8.012 58.655 1.245 68.508-6.628 33.229-26.094 49.841-61.287 49.841-105.593 0-49.729-17.237-90.399-51.691-122.026-34.461-31.629-78.766-47.436-132.912-47.436-59.567 0-104.483 14.342-134.761 43.012-30.277 28.67-46.769 72.557-49.47 131.623h69.411c3.94-41.356 14.913-70.947 32.916-88.798 17.994-17.849 45.98-26.762 83.947-26.762 32.786 0 59.653 9.41 80.61 28.24s31.437 43.019 31.437 72.557c0 31.01-10.096 55.626-30.277 73.843-17.237 15.749-39.383 24.613-66.46 26.586-12.557 0.732-24.429 1.103-35.634 1.103s-18.639-0.491-22.331-1.472v57.966c5.413-1.222 13.78-1.834 25.105-1.834 11.317 0 22.523 0.732 33.6 2.205 21.413 2.711 38.764 9.741 52.06 21.092 17.962 14.777 26.947 35.499 26.947 62.146zM519.845 643.9010000000001h223.005c68.912 0 123.74-24.549 164.476-73.659s61.11-115.135 61.11-198.076c0-82.701-20.858-148.548-62.585-197.53-41.714-48.988-98.025-73.474-168.907-73.474h-217.091v542.735zM593.319 163.94100000000003h134.39c52.672 0 93.342 18.092 122.02 54.273s43.019 87.503 43.019 153.962c0 66.7-13.788 118.199-41.356 154.508-27.574 36.303-66.708 54.457-117.411 54.457h-140.665v-417.199z"  horiz-adv-x="1024" />

    
    <glyph glyph-name="d1" unicode="&#58887;" d="M457.6 105.81333332999998H96v65.49333334l141.97333333 141.12c23.25333333 22.93333333 42.13333333 42.88 56.74666667 59.62666666 14.50666667 16.74666667 25.92 32.10666667 34.02666667 45.97333334 8.10666667 13.86666667 13.54666667 26.98666667 16.42666666 39.25333333 2.77333333 12.26666667 4.16 25.6 4.16 39.89333333 0 13.44-1.81333333 26.24-5.44 38.4-3.62666667 12.16-9.28 22.93333333-16.74666666 32.10666667s-17.38666667 16.53333333-29.44 21.86666667-26.45333333 8-43.2 8c-23.25333333 0-44.37333333-5.22666667-63.36-15.57333334-19.09333333-10.34666667-36.58666667-23.78666667-52.48-40.32l-40.53333334 48.32c20.69333333 21.86666667 44.58666667 39.36 71.57333334 52.48 26.98666667 13.12 58.45333333 19.73333333 94.29333333 19.73333334 24.32 0 46.50666667-3.62666667 66.56-10.88 20.05333333-7.25333333 37.33333333-17.81333333 51.84-31.46666667 14.50666667-13.76 25.81333333-30.50666667 33.81333333-50.34666667s11.94666667-42.24 11.94666667-67.2c0-21.01333333-2.77333333-40.42666667-8.42666667-58.34666666-5.65333333-17.92-14.08-35.73333333-25.38666666-53.54666667-11.30666667-17.81333333-25.6-36.16-42.88-55.25333333-17.17333333-19.09333333-37.54666667-39.89333333-61.12-62.61333334l-99.41333334-97.06666666h266.66666667v-69.65333334zM949.33333333 386.34666667c0-26.34666667-2.02666667-51.52-6.08-75.62666667-4.05333333-24.10666667-10.56-46.50666667-19.52-67.2s-20.58666667-39.57333333-34.88-56.53333333c-14.29333333-16.96-31.78666667-31.46666667-52.48-43.41333334-20.69333333-12.05333333-44.8-21.33333333-72.21333333-27.94666666-27.41333333-6.61333333-58.66666667-9.92-93.65333333-9.92H552.85333333V654.6133333299999H694.4c85.65333333 0 149.54666667-22.08 191.68-66.13333333S949.33333333 477.01333333 949.33333333 386.34666667z m-78.50666666-5.54666667c0 38.93333333-3.62666667 71.78666667-10.88 98.66666667-7.25333333 26.88-18.34666667 48.53333333-33.17333334 65.06666666-14.82666667 16.53333333-33.49333333 28.48-55.89333333 35.94666667-22.4 7.46666667-48.74666667 11.09333333-78.93333333 11.09333333h-64.21333334v-421.22666666h55.89333334c124.69333333 0.10666667 187.2 70.29333333 187.2 210.45333333z"  horiz-adv-x="1024" />

    
    <glyph glyph-name="guanbi" unicode="&#58886;" d="M583.68 383.402667l378.026667 378.026666a49.493333 49.493333 0 0 1 0 69.546667l-2.133334 2.133333a49.493333 49.493333 0 0 1-69.632 0L512.085333 454.570667 134.144 833.194667a49.493333 49.493333 0 0 1-69.632 0L62.464 831.061333a48.64 48.64 0 0 1 0-69.546666l378.026667-378.112-378.026667-377.941334a49.493333 49.493333 0 0 1 0-69.632l2.048-2.048a49.493333 49.493333 0 0 1 69.632 0l378.026667 378.026667 378.026666-378.026667a49.493333 49.493333 0 0 1 69.632 0l2.048 2.048a49.493333 49.493333 0 0 1 0 69.632L583.765333 383.402667z"  horiz-adv-x="1024" />

    
    <glyph glyph-name="tuceng" unicode="&#58974;" d="M512 286.90986667000004L26.54826667 566.0448 512 845.17973333l485.45173333-279.136L512 286.91093333000003zM147.91146667 566.0448L512 359.72693332999995l364.08853333 206.31786667L512 772.3616 147.91146667 566.0448zM936.77013333 444.6816l-60.6816-36.40853333L512 201.9552 87.22986667 444.68266667l-60.68266667-36.40853334L512 129.13706666999997l485.45173333 279.136zM936.77013333 274.77333333l-60.6816-36.40853333L512 32.04693333v-6.0672L87.22986667 268.70399999999995l-60.68266667-30.34026667L512-40.77120000000002l485.45173333 279.136z"  horiz-adv-x="1024" />

    
    <glyph glyph-name="xiangqing" unicode="&#59437;" d="M170.666667 725.333333c-34.133333 0-56.888889-22.755556-56.888889-56.888889s22.755556-56.888889 56.888889-56.888888 56.888889 22.755556 56.888889 56.888888-22.755556 56.888889-56.888889 56.888889z m170.666666-113.777777h512c34.133333 0 56.888889 22.755556 56.888889 56.888888s-22.755556 56.888889-56.888889 56.888889H341.333333c-34.133333 0-56.888889-22.755556-56.888889-56.888889s22.755556-56.888889 56.888889-56.888888zM170.666667 440.888889c-34.133333 0-56.888889-22.755556-56.888889-56.888889s22.755556-56.888889 56.888889-56.888889 56.888889 22.755556 56.888889 56.888889-22.755556 56.888889-56.888889 56.888889z m682.666666 0H341.333333c-34.133333 0-56.888889-22.755556-56.888889-56.888889s22.755556-56.888889 56.888889-56.888889h512c34.133333 0 56.888889 22.755556 56.888889 56.888889s-22.755556 56.888889-56.888889 56.888889zM170.666667 156.444444c-34.133333 0-56.888889-22.755556-56.888889-56.888888s22.755556-56.888889 56.888889-56.888889 56.888889 22.755556 56.888889 56.888889-22.755556 56.888889-56.888889 56.888888z m682.666666 0H341.333333c-34.133333 0-56.888889-22.755556-56.888889-56.888888s22.755556-56.888889 56.888889-56.888889h512c34.133333 0 56.888889 22.755556 56.888889 56.888889s-22.755556 56.888889-56.888889 56.888888z"  horiz-adv-x="1024" />

    
    <glyph glyph-name="quantu" unicode="&#59452;" d="M368.896 704H224a32 32 0 0 1-32-32v-137.888a32 32 0 0 1 64 0V640h112.896a32 32 0 0 1 0 64z m415.968 0H640a32 32 0 1 1 0-64h112.864v-105.888a32 32 0 1 1 64 0V672a32 32 0 0 1-32 32zM368.896 118.08000000000004H256V224a32 32 0 1 1-64 0v-137.92a32 32 0 0 1 32-32h144.896a32 32 0 1 1 0 64zM784.864 256a32 32 0 0 1-32-32v-105.92H640a32 32 0 1 1 0-64h144.864a32 32 0 0 1 32 32V224a32 32 0 0 1-32 32zM912 848H112c-35.296 0-64-28.704-64-64v-800c0-35.296 28.704-64 64-64h800c35.296 0 64 28.704 64 64V784c0 35.296-28.704 64-64 64zM112-16V784h800l0.064-800H112z"  horiz-adv-x="1024" />

    
    <glyph glyph-name="dishangliulan" unicode="&#58895;" d="M933.17802667 474.87658667c-6.99050667 11.06830222-167.77216 273.79484445-420.59548445 273.79484444-253.40586667 0-414.18752-262.72654222-420.59548444-273.79484444-4.66033778-8.15559111-5.82542222-18.05880889-2.33016889-26.79694222 1.16508445-2.91271111 115.34336-277.87264 422.92565333-277.87264s421.76056889 275.54247111 422.92565333 277.87264c2.91271111 8.73813333 2.33016889 18.64135111-2.33016888 26.79694222z m-59.41930667-18.05880889c-25.63185778-51.26371555-128.74183111-227.19146667-361.17617778-227.19146667s-336.12686222 175.34520889-361.17617777 227.19146667c34.36999111 50.68117333 171.26741333 232.43434667 361.17617777 232.43434667 189.32622222 0 326.80618667-181.75317333 361.17617778-232.43434667zM705.98656 456.81777778c0 107.18776889-86.79879111 193.98656-193.98656 193.98656S318.59598222 564.0055466700001 318.59598222 456.81777778s86.79879111-193.98656 193.98656-193.98656c106.60522667 0 193.40401778 87.38133333 193.40401778 193.98656z m-59.41930667 0c0-73.98286222-60.00184889-133.98471111-133.98471111-133.98471111s-133.98471111 60.00184889-133.98471111 133.98471111 60.00184889 133.98471111 133.98471111 133.98471111c73.98286222 0.58254222 133.98471111-60.00184889 133.98471111-133.98471111zM880.74922667 47.290595550000035H143.83331555c-18.64135111 0-33.20490667-15.72864-33.20490666-34.95253333s15.14609778-34.95253333 33.20490666-34.95253333h736.3333689c18.64135111 0 33.20490667 15.72864 33.20490666 34.95253333s-14.56355555 34.95253333-32.62236444 34.95253333z"  horiz-adv-x="1025" />

    
    <glyph glyph-name="position-fill" unicode="&#58929;" d="M512 801.68277333c-160.78165333 0-291.85365333-131.072-291.85365333-291.85365333 0-203.30723555 187.57859555-423.50819555 258.64874666-506.81173333 11.06830222-13.39847111 18.05880889-21.55406222 20.97152-25.63185778 2.91271111-4.07779555 7.57304889-6.40796445 12.23338667-6.40796444 4.07779555 0 8.15559111 1.74762667 11.06830222 4.66033777l1.16508445 1.16508445 0.58254222 1.16508444c2.33016889 3.49525333 8.73813333 11.06830222 21.55406222 26.2144 70.48760889 83.88608 258.06620445 305.83466667 258.06620444 505.64664889C803.85365333 670.61077333 672.78165333 801.68277333 512 801.68277333z m0-400.78904888c-60.00184889 0-108.93539555 48.93354667-108.93539555 108.93539555s48.93354667 108.93539555 108.93539555 108.93539555 108.93539555-48.93354667 108.93539555-108.93539555-48.93354667-108.93539555-108.93539555-108.93539555z"  horiz-adv-x="1024" />

    


  </font>
</defs>
</svg>
